<svg version="1.0" xmlns="http://www.w3.org/2000/svg"
     width="862.000000pt" height="863.000000pt" viewBox="0 0 862.000000 863.000000"
     preserveAspectRatio="xMidYMid meet">

  <g transform="translate(0.000000,863.000000) scale(0.100000,-0.100000)"
     fill="#1a1a1a" stroke="none">
    <path d="M1829 8178 c-9 -7 -89 -121 -179 -253 -324 -474 -400 -586 -422 -615
l-22 -30 24 -57 c13 -32 96 -227 185 -433 89 -206 172 -400 184 -431 l23 -55
-95 -135 c-53 -74 -121 -168 -151 -210 -32 -43 -56 -87 -56 -100 1 -19 26 -43
116 -109 64 -47 118 -88 120 -92 2 -4 -30 -78 -72 -165 -42 -87 -107 -221
-144 -298 -37 -77 -111 -229 -163 -338 -53 -109 -94 -204 -91 -212 9 -21 34
-26 123 -23 44 1 83 -1 86 -4 3 -3 -40 -199 -96 -434 -56 -236 -122 -512 -146
-614 -24 -101 -42 -189 -41 -195 3 -10 260 -249 408 -381 57 -50 60 -52 137
-58 106 -9 267 -27 271 -31 1 -1 3 -88 3 -193 1 -139 4 -194 13 -201 8 -7 106
-12 246 -13 l234 -3 34 -60 c19 -33 51 -89 72 -125 21 -36 82 -141 135 -235
54 -93 114 -198 134 -232 21 -34 121 -163 223 -287 l187 -224 46 -177 c25 -97
50 -187 55 -200 8 -20 70 -44 526 -194 284 -94 524 -171 533 -171 25 0 1045
342 1052 353 4 5 28 94 55 198 l48 189 191 229 c145 176 207 259 261 353 39
68 131 228 204 355 l134 233 241 2 240 3 3 201 2 201 48 6 c26 4 107 12 180
18 l133 12 229 210 c174 158 230 215 230 233 0 20 -95 430 -234 1004 -63 263
-69 233 48 234 80 1 101 4 109 18 9 13 -38 117 -225 505 -130 268 -238 493
-240 499 -2 6 52 52 120 103 67 51 122 100 122 108 0 9 -70 114 -156 234 -153
215 -155 218 -141 246 34 66 397 922 397 936 0 13 -95 158 -261 397 -25 36
-114 165 -197 286 -84 122 -158 224 -166 227 -7 3 -33 -1 -56 -9 -23 -8 -167
-55 -319 -105 -151 -49 -281 -95 -287 -102 -7 -7 -57 -109 -112 -227 -108
-232 -242 -513 -246 -517 -1 -2 -315 101 -697 227 -382 126 -701 230 -710 230
-8 0 -152 -45 -320 -100 -167 -56 -481 -159 -698 -231 -216 -71 -394 -128
-395 -127 -1 2 -60 127 -131 278 -223 476 -223 478 -248 485 -25 8 -606 196
-622 202 -6 2 -18 -2 -26 -9z m153 -200 c74 -84 189 -218 258 -298 68 -80 127
-147 131 -150 4 -3 22 -24 41 -46 18 -23 88 -104 154 -181 l122 -139 -108 -36
-109 -36 -281 283 c-195 195 -287 281 -299 278 -25 -6 -275 -498 -273 -537 1
-17 31 -171 65 -342 l64 -310 -45 -57 c-25 -31 -46 -56 -47 -55 -2 2 -91 210
-199 462 l-197 459 19 26 c10 14 43 62 73 106 31 44 148 215 261 380 113 165
212 310 219 323 8 12 15 22 16 22 1 0 62 -69 135 -152z m4849 -58 c73 -107
202 -296 286 -419 84 -123 153 -227 153 -232 0 -4 -82 -199 -181 -431 -100
-233 -188 -438 -196 -456 l-14 -33 -46 57 -46 56 69 337 68 336 -129 253 c-77
153 -136 257 -149 264 -18 10 -47 -16 -301 -275 l-280 -287 -108 36 -108 35
18 23 c10 13 128 151 263 306 135 156 314 364 399 462 85 98 158 175 161 171
4 -4 67 -96 141 -203z m-4625 103 l263 -86 77 -166 c42 -91 106 -227 142 -301
67 -141 122 -260 122 -265 0 -9 -73 -26 -80 -19 -4 5 -40 47 -80 94 -40 47
-76 87 -79 90 -4 3 -113 129 -243 280 -130 151 -273 317 -318 368 -45 50 -78
92 -74 92 4 0 125 -39 270 -87z m4378 65 c-11 -13 -63 -72 -114 -133 -52 -60
-112 -130 -134 -155 -66 -74 -91 -102 -313 -362 -117 -135 -216 -249 -221
-252 -14 -8 -72 14 -71 27 0 7 75 172 167 367 l167 355 260 87 c143 47 264 87
269 87 5 1 1 -9 -10 -21z m-2709 -864 c286 -133 297 -139 255 -142 -98 -5
-905 -42 -1060 -48 -91 -3 -284 -11 -430 -19 -146 -7 -267 -11 -269 -9 -1 1
255 88 570 192 531 175 576 189 604 177 17 -7 165 -75 330 -151z m1788 -49
c279 -92 506 -169 505 -170 -2 -2 -178 5 -393 15 -214 10 -621 28 -904 41
-514 23 -514 23 -475 41 22 10 169 79 329 152 l289 133 71 -22 c38 -12 298
-97 578 -190z m-1468 -143 c-6 -5 -30 -24 -55 -43 -25 -20 -121 -96 -215 -171
-344 -273 -700 -554 -713 -562 -13 -8 -75 36 -754 542 -167 124 -194 148 -175
153 12 3 101 9 197 13 96 4 231 9 300 12 133 5 1154 52 1255 57 131 7 169 7
160 -1z m890 -27 c292 -13 607 -27 700 -30 238 -9 485 -22 489 -26 2 -2 -143
-112 -322 -244 -179 -132 -386 -285 -461 -341 -75 -55 -142 -103 -148 -108
-12 -7 -78 43 -508 384 -377 299 -442 351 -470 375 l-30 26 110 -6 c61 -3 349
-16 640 -30z m-2838 -205 c23 -41 118 -219 213 -395 95 -176 192 -358 217
-405 25 -47 127 -235 225 -418 99 -183 178 -335 176 -338 -3 -2 -117 64 -254
146 -137 83 -345 208 -462 278 l-213 127 6 145 c3 80 15 316 25 525 11 209 20
389 20 399 0 25 0 25 47 -64z m205 -57 c312 -232 692 -512 711 -526 17 -12 18
-24 9 -185 -5 -95 -12 -175 -15 -178 -2 -3 -110 49 -238 115 l-234 119 -43 79
c-24 43 -68 125 -99 183 -69 130 -118 222 -198 370 -83 154 -86 160 -82 160 2
0 87 -62 189 -137z m3657 -175 c-89 -167 -182 -338 -206 -382 -23 -43 -43 -82
-43 -87 0 -7 -447 -239 -476 -247 -8 -2 -14 36 -18 125 -3 70 -8 150 -11 176
l-4 48 192 142 c106 79 298 221 427 316 129 96 249 184 265 196 17 13 32 21
33 20 2 -2 -69 -140 -159 -307z m229 214 c2 -48 14 -287 27 -532 13 -245 20
-448 17 -452 -4 -3 -122 -76 -262 -160 -140 -85 -346 -210 -458 -277 -112 -68
-205 -122 -207 -120 -2 2 24 54 56 114 33 61 90 166 126 235 36 69 156 292
266 495 109 204 216 402 236 440 133 250 186 345 191 345 3 0 6 -39 8 -88z
m121 -102 c38 -85 133 -297 211 -470 247 -546 233 -513 207 -508 -12 3 -118
27 -234 54 l-213 49 0 30 c0 16 -7 152 -15 300 -8 149 -17 353 -20 455 -3 102
-8 201 -11 220 -3 19 -3 33 0 30 3 -3 36 -75 75 -160z m-4333 -404 c-14 -257
-26 -469 -28 -471 -6 -6 -451 -105 -455 -101 -4 3 63 158 170 391 49 108 238
527 306 680 l26 59 3 -44 c1 -25 -9 -256 -22 -514z m4540 264 c169 -212 271
-348 445 -596 l57 -81 -104 -79 c-57 -44 -107 -77 -112 -74 -7 4 -49 94 -131
280 -21 47 -100 222 -176 390 -184 408 -188 417 -177 405 5 -5 94 -116 198
-245z m-4638 148 c-209 -470 -440 -974 -448 -976 -9 -3 -195 131 -206 149 -5
9 273 401 375 528 93 115 102 126 218 274 51 64 95 117 98 117 2 0 -15 -42
-37 -92z m2739 -340 c266 -73 483 -135 483 -138 0 -3 -17 -13 -38 -22 -20 -9
-145 -66 -277 -126 -132 -60 -274 -125 -315 -144 -41 -19 -137 -63 -212 -98
l-138 -63 -47 21 c-27 11 -192 86 -368 167 -176 80 -375 171 -442 202 -68 31
-123 59 -123 63 0 4 26 14 58 23 311 85 743 203 807 222 44 13 91 24 105 24
14 1 242 -59 507 -131z m-1147 -348 c206 -94 426 -194 488 -222 61 -28 112
-54 112 -57 0 -6 -36 -36 -360 -302 -96 -79 -233 -190 -304 -248 -70 -59 -136
-112 -146 -119 -16 -12 -29 -6 -107 42 -48 30 -96 61 -107 69 -20 15 -21 -13
9 612 2 55 8 169 11 253 5 106 10 152 18 148 6 -2 180 -81 386 -176z m1709
-220 c11 -217 21 -443 23 -502 l3 -107 -88 -56 c-48 -30 -97 -60 -108 -65 -20
-11 -60 20 -594 460 -77 63 -166 135 -197 160 -32 25 -58 47 -58 50 0 3 91 47
203 97 111 51 335 153 497 227 162 74 296 133 297 132 1 -1 11 -179 22 -396z
m-3270 -49 c-74 -106 -105 -150 -586 -841 l-150 -215 -91 -3 c-51 -1 -92 -1
-92 2 0 2 32 69 71 148 39 79 132 269 206 423 157 329 187 387 205 398 9 5
342 84 447 106 2 1 -3 -8 -10 -18z m4695 -48 l168 -38 53 -105 c76 -152 415
-857 415 -864 0 -3 -39 -6 -87 -6 l-88 1 -61 87 c-230 329 -684 983 -684 986
0 2 26 -2 58 -10 31 -7 133 -30 226 -51z m-402 -218 l-27 -240 -130 -7 c-281
-14 -707 -29 -711 -26 -2 2 88 59 199 126 111 67 312 189 447 270 180 109 246
144 247 133 2 -9 -10 -124 -25 -256z m-3840 58 c189 -114 390 -236 448 -271
l105 -64 -130 6 c-71 3 -263 11 -425 17 -162 6 -296 12 -297 13 -5 4 -59 492
-56 499 2 4 6 7 8 7 2 0 158 -93 347 -207z m-377 -34 c14 -118 25 -234 25
-259 0 -25 -16 -94 -35 -155 -20 -60 -64 -202 -100 -315 -257 -824 -520 -1648
-526 -1645 -3 3 -9 39 -12 82 -4 43 -16 179 -27 303 -41 452 -80 887 -85 950
-3 36 -8 93 -11 127 l-6 63 63 92 c56 82 229 332 574 826 59 84 109 152 111
150 2 -2 15 -101 29 -219z m4357 138 c31 -45 162 -233 290 -417 128 -184 270
-389 315 -455 l82 -120 -24 -255 c-14 -140 -29 -313 -35 -385 -6 -71 -22 -245
-35 -385 -14 -140 -27 -298 -31 -350 -3 -52 -9 -111 -13 -130 l-8 -35 -10 35
c-11 37 -130 416 -238 755 -35 110 -113 360 -175 555 -61 195 -140 446 -176
557 l-65 202 21 193 c11 106 23 221 27 256 3 34 9 62 12 62 3 -1 32 -38 63
-83z m-2461 -484 l-186 -498 -40 -3 c-22 -2 -78 -1 -124 3 l-83 7 -84 173
c-46 95 -84 175 -84 178 0 3 66 59 148 125 81 66 255 208 387 316 132 108 242
196 246 196 3 0 -78 -224 -180 -497z m657 205 c196 -160 371 -304 389 -319
l32 -28 -86 -174 -86 -174 -66 -7 c-69 -6 -181 -8 -181 -3 0 2 -83 225 -185
497 -102 271 -185 495 -185 497 0 11 44 -24 368 -289z m-223 -233 l188 -500
167 -790 c92 -434 166 -792 164 -793 -1 -2 -163 -25 -359 -52 l-356 -48 -217
29 c-552 73 -505 64 -499 93 6 27 108 514 187 891 33 160 76 362 95 449 19 88
35 165 35 172 0 27 393 1065 400 1057 4 -4 92 -233 195 -508z m-2063 -76 c95
-60 177 -114 182 -119 5 -5 37 -68 71 -141 l62 -131 -225 -459 c-125 -252
-227 -457 -229 -455 -2 1 -12 259 -23 572 -19 547 -25 844 -16 844 3 0 82 -50
178 -111z m3918 69 c0 -24 -9 -297 -20 -608 -10 -311 -20 -609 -22 -662 -2
-54 -5 -98 -8 -98 -3 0 -106 204 -229 454 l-223 454 65 137 66 137 178 114
c98 62 181 113 186 114 4 0 7 -19 7 -42z m-4131 -649 c11 -321 23 -636 26
-700 l6 -116 -147 -129 c-419 -367 -529 -462 -532 -456 -1 4 48 165 109 357
61 193 131 415 155 495 25 80 75 237 111 350 35 113 106 336 156 497 51 160
93 290 94 289 2 -1 12 -265 22 -587z m688 576 c38 -15 38 -15 38 -74 0 -49 4
-64 25 -86 45 -49 123 -69 173 -44 12 6 32 22 43 36 20 24 24 24 58 13 19 -6
38 -15 41 -20 19 -30 -80 -132 -145 -151 -84 -25 -216 25 -267 102 -29 44 -40
117 -29 194 8 50 10 51 63 30z m2837 -1 c14 -37 17 -122 6 -164 -16 -60 -80
-121 -157 -150 -100 -38 -186 -13 -254 73 -21 27 -39 52 -39 56 0 4 19 16 42
27 l42 21 29 -33 c51 -59 144 -55 206 7 27 27 31 37 31 88 0 55 1 58 33 74 41
20 53 21 61 1z m770 -349 c121 -385 155 -490 364 -1155 82 -261 148 -477 146
-479 -2 -2 -213 178 -244 209 -3 3 -39 34 -80 70 -41 36 -86 75 -100 88 -14
13 -76 67 -138 120 l-113 97 6 225 c4 124 13 416 21 650 8 234 14 452 14 485
0 38 4 55 9 45 5 -8 57 -168 115 -355z m-829 -599 c-58 -285 -105 -522 -105
-527 0 -25 -23 -1 -67 74 -28 45 -103 169 -167 275 l-117 193 19 128 c19 120
23 132 66 199 34 54 51 72 68 72 109 1 209 22 303 63 55 24 101 43 102 43 1
-1 -45 -235 -102 -520z m-2768 473 c76 -35 103 -42 201 -51 l113 -11 46 -66
c43 -59 48 -74 65 -170 28 -163 29 -157 -66 -310 -46 -75 -121 -198 -167 -274
-73 -119 -85 -134 -91 -115 -8 24 -208 1015 -208 1030 0 14 18 9 107 -33z
m937 30 c3 -2 1 -23 -4 -44 -6 -22 -30 -139 -55 -260 -65 -315 -85 -408 -93
-427 -6 -14 -33 6 -147 111 l-140 129 -22 129 -22 128 122 122 122 122 117 -2
c65 -2 120 -5 122 -8z m1244 -107 l123 -118 -18 -128 -17 -128 -145 -137 -145
-136 -18 80 c-37 171 -138 655 -138 664 0 13 37 18 145 19 l90 1 123 -117z
m-2224 -452 c58 -288 104 -525 103 -527 -3 -2 -235 46 -519 109 -82 18 -148
35 -148 38 0 15 454 924 456 915 2 -5 51 -246 108 -535z m3266 -79 c83 -167
149 -305 148 -306 -7 -6 -663 -143 -667 -139 -4 4 192 1002 206 1048 4 14 28
-26 84 -140 44 -87 147 -296 229 -463z m-2715 -256 c56 -377 124 -847 127
-885 4 -32 26 -54 236 -239 128 -112 230 -206 228 -208 -2 -2 -82 12 -177 33
l-174 36 -106 177 c-58 97 -199 330 -313 518 l-207 342 102 168 c56 93 131
217 168 277 l66 110 7 -45 c4 -24 24 -152 43 -284z m1972 38 c84 -139 153
-258 153 -264 0 -6 -78 -140 -174 -298 -95 -157 -235 -388 -310 -513 -116
-190 -142 -228 -164 -232 -15 -3 -91 -19 -169 -36 -78 -16 -146 -30 -152 -30
-6 0 28 35 76 78 48 42 95 84 103 92 9 8 75 66 147 129 l131 115 7 55 c9 81
30 223 85 598 28 182 57 382 65 445 9 62 18 122 22 132 5 19 6 19 16 0 6 -10
79 -133 164 -271z m-2971 -162 c435 -92 485 -105 472 -116 -7 -7 -125 -70
-263 -140 -137 -70 -350 -179 -472 -242 -123 -63 -223 -113 -223 -111 0 4 83
161 147 278 16 30 67 124 112 208 45 83 84 152 86 152 1 0 65 -13 141 -29z
m3917 -24 c15 -28 59 -110 97 -182 38 -71 109 -204 159 -295 l90 -164 -2 -181
-2 -180 -221 -3 -221 -2 -239 352 c-314 462 -377 558 -373 562 2 2 148 33 324
70 176 37 325 69 330 71 24 8 32 2 58 -48z m-3623 -464 c-126 -186 -260 -383
-297 -438 l-68 -100 -223 -3 -222 -2 2 176 3 175 510 264 c281 145 513 264
517 265 3 0 -96 -152 -222 -337z m510 -23 c112 -184 243 -400 291 -480 l89
-145 -78 -3 c-300 -10 -647 -19 -649 -18 -3 3 7 77 77 556 28 190 53 364 57
388 3 23 7 41 8 40 2 -2 94 -154 205 -338z m2400 -55 c78 -541 84 -584 79
-588 -5 -4 -712 14 -718 19 -3 2 81 143 478 797 74 123 97 154 103 140 4 -10
30 -175 58 -368z m295 -80 c93 -137 193 -285 222 -328 l53 -79 -18 -31 c-55
-94 -113 -194 -225 -391 -119 -206 -126 -216 -131 -185 -6 35 -25 183 -51 394
-7 66 -32 244 -54 395 -22 151 -52 354 -66 450 -14 96 -28 186 -31 200 -6 26
31 -26 301 -425z m-3015 19 c-66 -447 -77 -526 -116 -839 -25 -200 -29 -224
-38 -214 -10 11 -356 621 -356 627 0 4 88 138 196 297 108 160 235 347 282
418 47 70 87 126 89 124 2 -2 -24 -188 -57 -413z m894 -645 c247 -140 317
-181 314 -184 -2 -2 -142 -87 -312 -189 -283 -170 -311 -185 -330 -173 -12 7
-114 62 -227 121 l-206 109 -77 190 c-42 105 -75 192 -73 193 3 3 493 20 656
22 l94 2 161 -91z m1699 75 c135 -5 197 -10 197 -18 -1 -6 -34 -92 -74 -191
l-73 -180 -229 -122 c-203 -108 -231 -121 -249 -109 -11 7 -150 90 -308 185
-195 117 -286 176 -279 183 6 6 111 68 234 139 l223 129 180 -5 c99 -3 269 -8
378 -11z m-1555 -49 c64 -14 125 -28 134 -31 15 -4 55 -110 46 -119 -4 -4
-293 156 -305 168 -10 10 -3 9 125 -18z m831 21 c-8 -6 -309 -176 -313 -176
-4 0 24 111 30 119 1 1 58 16 126 31 114 26 167 35 157 26z m-603 -363 c-7 -7
-416 -153 -430 -153 -5 0 84 56 200 125 l209 125 13 -46 c8 -25 11 -48 8 -51z
m507 -48 c91 -54 164 -101 162 -103 -2 -2 -68 20 -147 48 -78 29 -175 63 -215
76 l-71 25 10 37 c17 67 15 65 56 40 21 -13 113 -68 205 -123z m-596 -375
l211 -48 99 23 c313 72 372 85 382 85 7 0 6 -13 -4 -37 -9 -21 -61 -153 -116
-293 -55 -140 -101 -256 -103 -257 -1 -1 -54 11 -117 28 -63 16 -127 30 -144
30 -16 0 -79 -13 -140 -29 -60 -17 -113 -27 -117 -23 -4 3 -43 98 -87 211 -44
113 -93 239 -110 280 -17 41 -31 79 -31 83 0 10 -1 10 277 -53z m-223 -215
c57 -143 102 -262 100 -263 -1 -2 -56 35 -121 84 -65 48 -164 121 -221 163
-56 41 -101 78 -100 82 6 13 223 198 231 196 4 -1 54 -119 111 -262z m1091
170 c61 -52 110 -100 110 -107 0 -11 -426 -330 -432 -324 -5 4 201 526 207
526 3 0 55 -43 115 -95z"/>
  </g>
</svg>
