<?xml version="1.0" encoding="utf-8"?>
<!-- Generator: Adobe Illustrator 28.3.0, SVG Export Plug-In . SVG Version: 6.00 Build 0)  -->
<svg version="1.1" id="logo" xmlns="http://www.w3.org/2000/svg" x="0px"
     y="0px"
     viewBox="0 0 100 100" style="enable-background:new 0 0 100 100;" xml:space="preserve">
<style type="text/css">
	.st0 {
    fill-rule: evenodd;
    clip-rule: evenodd;
    fill: #1a1a1a;
  }
</style>
  <g>
	<path class="st0" d="M36.2,61c0.4-0.9,0.9-1.6,1.6-2.3c0.9-0.9,2-1.6,3.2-2.1c0.9-0.4,1.8-0.6,2.8-0.7c0.3-0.1,0.7-0.1,1-0.1H57
		v-5.2H44.9c-2.1,0-4.1,0.4-5.9,1.2c-1.8,0.7-3.4,1.8-4.8,3.2c-1.3,1.4-2.4,3-3.2,4.8c-0.1,0.3-0.3,0.7-0.4,1.1
		c-0.5,1.5-0.8,3-0.8,4.7c0,1.6,0.3,3.2,0.8,4.7c0.1,0.3,0.2,0.6,0.3,0.9c0,0.1,0.1,0.2,0.1,0.3c0.1,0.3,0.3,0.5,0.4,0.8
		c0.6,1.2,1.4,2.2,2.2,3.2c0.2,0.3,0.5,0.6,0.7,0.8c1.4,1.3,3,2.4,4.8,3.2c1.9,0.8,3.8,1.2,5.9,1.2h1.8h4.8h5.6c2.8-0.1,5-2.3,5.2-5
		v-0.2v-0.6v-3.7v-0.9v-4.7c0-0.2,0-0.5,0-0.8c0-1,0.3-2,0.7-3c0.2-0.3,0.3-0.6,0.5-0.9c0.4-0.9,0.9-1.6,1.6-2.3
		c0.9-0.9,2-1.6,3.2-2.1c1.2-0.5,2.5-0.8,3.8-0.8h4.5h0.4c1.7-0.1,3-1.5,3-3.2V51c0,0,0-0.4,0-0.4h-0.7h-2.9h-4.4
		c-2.1,0-4.1,0.4-5.9,1.2c-1.8,0.7-3.4,1.8-4.8,3.2c-1.3,1.4-2.4,3-3.2,4.8c-0.1,0.3-0.3,0.7-0.4,1.1c-0.5,1.5-0.8,3-0.8,4.7V70v0.4
		v0.9v4.3h-3h-8h-1.1c-1.3,0-2.6-0.3-3.8-0.8c-1.2-0.5-2.3-1.2-3.2-2.1c-0.4-0.4-0.8-0.9-1.1-1.4c-0.2-0.3-0.4-0.6-0.6-0.9
		c-0.2-0.3-0.4-0.6-0.5-0.9c-0.5-1.2-0.8-2.4-0.8-3.8c0-1.3,0.3-2.6,0.8-3.8C35.9,61.6,36,61.3,36.2,61z"/>
    <path class="st0" d="M76.8,38.4c-0.4-0.5-0.8-1-1.3-1.5c0-0.1-0.1-0.2-0.2-0.3c-0.2-0.3-0.5-0.6-0.8-0.8c-0.1,0-0.1,0-0.1,0
		l-0.1-0.1c-0.1-0.1-0.2-0.1-0.3-0.2c-0.3-0.2-0.5-0.4-0.8-0.6c-0.1-0.1-0.2-0.1-0.3-0.2c-0.3-0.2-0.6-0.4-0.9-0.6
		c-0.1-0.1-0.3-0.1-0.4-0.2c-0.3-0.2-0.6-0.4-0.9-0.5c-0.1,0-0.2-0.1-0.3-0.1c-0.1,0-0.1-0.1-0.2-0.1c-0.2-0.2-0.5-0.3-0.8-0.4
		c-0.1-0.1-0.1-0.1-0.2-0.1c-0.3-0.1-0.5-0.2-0.8-0.3c-0.2,0-0.3-0.1-0.4-0.1c-0.1,0-0.1,0-0.2,0c-0.4-0.1-0.9-0.2-1.3-0.3h-0.1
		c-0.5-0.1-0.9-0.2-1.4-0.3c-4.4-1.5-5.5-1.2-9.2-4.3c-4.6-3.8-9.2-7.7-13.5-9.8c-1.8-0.9-3.9-1.7-6-2.4c-0.1,0-0.3-0.1-0.4-0.1
		c-0.7-0.2-1.5-0.4-2.2-0.6c-0.3-0.1-0.7-0.2-1-0.3c-0.2,0-0.3-0.1-0.5-0.1c-0.1,0-0.3-0.1-0.4-0.1h-0.1c-1.7-0.4-3.6-0.7-5.5-0.9
		c-0.1,0-0.3,0-0.4,0c-0.1,0-0.2,0-0.3,0c-2.9,0-7.2,2.1-4.7,11.6c0.3,0.9,0.4,1.8,0.7,2.7c0.1,0.2,0.1,0.5,0.2,0.7
		c0.9,2.9,2.4,6,4.6,8.9c0.3,0.4,0.7,0.9,1.1,1.3l0.1,0.1c6,6.6,16.9,10.1,29,10.3h0.8v-5.4h-0.8c-8-0.1-16.1-1.7-20.9-4.9
		c-0.7-0.5-1.4-1-2-1.5c-0.8-0.7-1.6-1.4-2.3-2.2c-1.8-2.1-3.1-4.4-4-6.7c-0.4-1.2-0.7-2.3-1-3.4c-0.1-0.3-0.1-0.6-0.2-0.9
		c-0.1-0.5-0.2-0.9-0.3-1.4c0-0.2-0.1-0.3-0.1-0.5c0,0-0.1-0.7-0.1-1c0-0.8,0.1-1.6,0.4-2.3c0.6,0.1,1.2,0.2,1.8,0.3
		c1,0.2,2,0.4,3,0.6c0.1,0.1,0.2,0.1,0.3,0.1c2.3,0.5,4.3,1.1,6.2,1.9c0.5,0.2,0.9,0.4,1.4,0.6c0.2,0.1,0.3,0.1,0.4,0.2
		c1.6,0.8,3.2,1.6,4.6,2.5c1.5,1,2.9,1.9,4.1,2.9c0,0,0.5,0.6,1.6,1.4c1.4,1.1,3.7,2.7,4,2.9c5.2,3.6,10.1,3.9,15,6.6
		c1.1,0.6,2.2,1.2,3,2c1.1,1.1,1.9,2.4,2.4,3.6c0.5,1.2,0.8,2.3,0.9,3.2c0.1,0.6,0.1,1.1,0.2,1.6v-0.2h5.5l-0.1-0.8
		C80.2,45.8,79.4,41.9,76.8,38.4z"/>
</g>
</svg>
