<?xml version="1.0" encoding="utf-8"?>
<!-- Generator: Adobe Illustrator 28.3.0, SVG Export Plug-In . SVG Version: 6.00 Build 0)  -->
<svg version="1.1" id="logo" xmlns="http://www.w3.org/2000/svg" x="0px"
     y="0px"
     viewBox="0 0 100 100" style="enable-background:new 0 0 100 100;" xml:space="preserve">
<style type="text/css">
	.st0 {
    fill-rule: evenodd;
    clip-rule: evenodd;
    fill: #60ffff;
  }
</style>
  <path class="st0" d="M64.4,41.2c0,0,4.1,0,4.3,0c3.2,0,1.8-5.7,1.4-7.7c-0.5-2.3-3.6-11.4-12.9-11.4c0,0-15.2,0-15.4,0
	c-7.8,0-11,6.1-11.9,8.8c-0.7,2.7-0.9,6.6-0.2,9.3c1.4,6.1,7.5,8.6,10.9,10.2l16.6,7.3c3.2,1.4,4.1,3.4,4.1,5.2c0,2-0.9,5.7-5,5.7
	H43.1c-0.9,0-5,0-5-6.8c0-1.6-1.4-3-3-3.2H31c-0.9,0-1.6,0.7-1.8,1.6c0,0.5,0,0.9,0,1.6V62c0,2.3,0.7,5,0.7,5.2
	c3.4,10.7,11.8,10.7,13.4,10.7c0.2,0,15.4,0,15.4,0c4.5,0,11.8-4.3,11.8-14.5c0-7.7-6.4-11.8-7-12c-2.3-1.4-19.3-8.6-20.2-9.1
	c-2.5-1.6-5-3-5-6.1c0-3.6,1.8-5,3.4-5h15.2c4.1,0,4.3,5.5,4.5,6.8c0,0.2,0,0.2,0,0.5C61.6,39.9,62.8,41.2,64.4,41.2z"/>
</svg>
