<svg version="1.1" xmlns="http://www.w3.org/2000/svg" width="75" height="75" viewBox="0 0 332 332">
  <path style="fill: var(--company-logo-c, #fff)"
        d="M133.204 125.71H149.714L138.033 114.161C135.292 111.452 135.227 107.129 137.837 104.548C140.447 101.968 144.819 102.032 147.56 104.742L165.963 122.935L184.366 104.742C187.107 102.032 191.479 101.968 194.089 104.548C196.7 107.129 196.634 111.452 193.894 114.161L182.212 125.71H198.723C202.573 125.71 205.771 128.677 205.771 132.355C205.771 136.032 202.638 139 198.723 139H182.212L193.894 150.548C196.634 153.258 196.7 157.581 194.089 160.161C191.479 162.742 187.107 162.677 184.366 159.968L172.685 148.419V164.742C172.685 168.548 169.683 171.71 165.963 171.71C162.243 171.71 159.242 168.613 159.242 164.742V148.419L147.56 159.968C144.819 162.677 140.447 162.742 137.837 160.161C135.227 157.581 135.292 153.258 138.033 150.548L149.714 139H133.204C129.353 139 126.156 136.032 126.156 132.355C126.221 128.677 129.353 125.71 133.204 125.71ZM165.963 93C170.727 93 174.642 96.806 174.642 101.581C174.642 106.29 170.792 110.161 165.963 110.161C161.199 110.161 157.284 106.355 157.284 101.581C157.284 96.871 161.199 93 165.963 93ZM98.8777 215.71H102.728C107.949 215.452 110.428 210.806 110.428 207.065C110.298 203.387 107.818 199.452 102.597 199.323H98.8777V215.71ZM93.3308 188.484H102.663C116.302 188.355 123.023 199.065 122.827 208.161C122.632 219 113.496 227 102.597 227H94.1792C88.9585 226.935 86.3482 224.871 86.3482 220.097V194.806C86.4134 190.032 89.9374 188.484 93.3308 188.484ZM63.3121 208.226L55.7421 223.516C54.3064 226.484 50.5867 227.774 47.5196 226.355C44.4524 224.935 43.1473 221.323 44.583 218.355L57.6346 191.839C58.4177 190.29 59.7229 189.258 61.2891 188.742C61.8764 188.548 62.529 188.484 63.1163 188.419H63.1815C63.8341 188.419 64.4867 188.548 65.1393 188.742H65.2045C66.7055 189.258 68.0106 190.29 68.7285 191.774L82.0411 218.29C83.5421 221.258 82.2369 224.871 79.1698 226.29C76.1026 227.71 72.3829 226.484 70.882 223.516L63.3121 208.226ZM143.057 208.226L135.488 223.581C134.052 226.548 130.332 227.839 127.265 226.419C124.198 225 122.893 221.387 124.328 218.419L137.38 191.903C138.163 190.355 139.468 189.323 141.034 188.806C141.622 188.613 142.274 188.548 142.862 188.484H142.927C143.58 188.484 144.232 188.613 144.885 188.806H144.95C146.451 189.323 147.756 190.355 148.474 191.839L161.787 218.355C163.288 221.323 161.982 224.935 158.915 226.355C155.848 227.774 152.128 226.548 150.627 223.581L143.057 208.226ZM189.13 206.161L195.59 192.742C197.222 189.452 199.441 188.419 201.725 188.419C205.314 188.355 207.467 190.548 208.185 194.613L212.166 219.194C213.667 228.161 201.464 230.032 200.224 221.258L199.049 213.194L195.46 221.839C194.35 224.613 192.262 226.935 189.13 226.935C185.932 226.935 183.909 224.613 182.8 221.839L179.211 213.194L178.036 221.258C176.796 230.032 164.593 228.161 166.094 219.194L170.074 194.613C170.792 190.548 173.011 188.419 176.535 188.419C178.884 188.419 181.038 189.452 182.669 192.742L189.13 206.161ZM230.83 202.935H236.833C239.705 202.935 241.989 204.935 241.989 207.323C241.989 209.774 239.64 211.71 236.833 211.71H230.83C230.83 212.935 230.83 213.645 230.83 214.871H238.987C247.079 214.871 246.492 227 238.987 226.871H227.306C221.563 226.871 218.365 224.29 218.365 218.161C218.365 210.742 218.365 204.355 218.365 196.935C218.365 190.806 221.563 188.226 227.306 188.226H238.987C246.492 188.097 247.144 200.226 238.987 200.226H230.83V202.935ZM263.981 215.71H267.831C273.052 215.452 275.532 210.806 275.532 207.065C275.401 203.387 272.921 199.452 267.701 199.323H263.981V215.71ZM258.499 188.484H267.831C281.47 188.355 288.192 199.065 287.996 208.161C287.8 219 278.664 227 267.766 227H259.347C254.127 226.935 251.517 224.871 251.517 220.097V194.806C251.582 190.032 255.106 188.484 258.499 188.484Z"/>
</svg>
