<svg height="100%" width="100%" xmlns="http://www.w3.org/2000/svg">
  <polyline fill="none"
            points="1573.0,997.0 1573.0,998.0 1574.0,999.0 1574.0,1000.0 1575.0,1001.0 1575.0,1003.0 1576.0,1004.0 1576.0,1006.0 1577.0,1007.0 1577.0,1008.0 1578.0,1009.0 1578.0,1010.0 1579.0,1011.0 1579.0,1012.0 1580.0,1013.0 1580.0,1014.0 1581.0,1015.0 1581.0,1017.0 1582.0,1018.0 1582.0,1019.0 1583.0,1020.0 1583.0,1022.0 1584.0,1023.0 1584.0,1024.0 1585.0,1025.0 1585.0,1026.0 1586.0,1027.0 1586.0,1029.0 1587.0,1030.0 1587.0,1032.0 1589.0,1034.0 1589.0,1036.0 1590.0,1037.0 1590.0,1038.0 1591.0,1039.0 1591.0,1041.0 1592.0,1042.0 1592.0,1043.0 1593.0,1044.0 1593.0,1045.0 1594.0,1046.0 1594.0,1048.0 1595.0,1049.0 1595.0,1050.0 1596.0,1051.0 1596.0,1053.0 1597.0,1054.0 1597.0,1055.0 1598.0,1056.0 1598.0,1057.0 1599.0,1058.0 1599.0,1059.0 1600.0,1060.0 1600.0,1062.0 1601.0,1063.0 1601.0,1064.0 1602.0,1065.0 1602.0,1067.0 1603.0,1068.0 1603.0,1069.0 1604.0,1070.0 1604.0,1071.0 1605.0,1072.0 1605.0,1074.0 1606.0,1075.0 1606.0,1076.0 1607.0,1077.0 1607.0,1078.0 1608.0,1079.0 1608.0,1081.0 1609.0,1082.0 1609.0,1083.0 1610.0,1084.0 1610.0,1086.0 1611.0,1087.0 1611.0,1088.0 1612.0,1089.0 1612.0,1090.0 1613.0,1091.0 1613.0,1092.0 1614.0,1093.0 1614.0,1095.0 1615.0,1096.0 1615.0,1098.0 1616.0,1099.0 1616.0,1100.0 1617.0,1101.0 1617.0,1102.0 1618.0,1103.0 1618.0,1105.0 1620.0,1107.0 1620.0,1109.0 1621.0,1110.0 1621.0,1111.0 1622.0,1112.0 1622.0,1114.0 1623.0,1115.0 1623.0,1116.0 1624.0,1117.0 1624.0,1118.0 1625.0,1119.0 1625.0,1121.0 1626.0,1122.0 1626.0,1124.0 1628.0,1126.0 1628.0,1128.0 1629.0,1129.0 1629.0,1130.0 1630.0,1131.0 1630.0,1132.0 1631.0,1133.0 1631.0,1135.0 1632.0,1136.0 1632.0,1138.0 1633.0,1139.0 1633.0,1140.0 1634.0,1141.0 1634.0,1142.0 1635.0,1143.0 1635.0,1144.0 1636.0,1145.0 1636.0,1147.0 1637.0,1148.0 1637.0,1149.0 1638.0,1150.0 1638.0,1151.0 1639.0,1152.0 1639.0,1154.0 1640.0,1155.0 1640.0,1156.0 1641.0,1157.0 1641.0,1158.0 1642.0,1159.0 1642.0,1161.0 1643.0,1162.0 1643.0,1163.0 1644.0,1164.0 1644.0,1166.0 1645.0,1167.0 1645.0,1168.0 1646.0,1169.0 1646.0,1170.0 1647.0,1171.0 1647.0,1173.0 1648.0,1174.0 1648.0,1175.0 1649.0,1176.0 1649.0,1178.0 1650.0,1179.0 1650.0,1180.0 1651.0,1181.0 1691.0,1181.0 1692.0,1180.0 1692.0,1179.0 1693.0,1178.0 1693.0,1177.0 1694.0,1176.0 1694.0,1175.0 1695.0,1174.0 1695.0,1172.0 1696.0,1171.0 1696.0,1170.0 1697.0,1169.0 1697.0,1167.0 1698.0,1166.0 1698.0,1165.0 1699.0,1164.0 1699.0,1163.0 1700.0,1162.0 1700.0,1160.0 1701.0,1159.0 1701.0,1158.0 1702.0,1157.0 1702.0,1155.0 1703.0,1154.0 1703.0,1153.0 1704.0,1152.0 1704.0,1151.0 1705.0,1150.0 1705.0,1148.0 1707.0,1146.0 1707.0,1144.0 1708.0,1143.0 1708.0,1141.0 1709.0,1140.0 1709.0,1139.0 1710.0,1138.0 1710.0,1137.0 1711.0,1136.0 1711.0,1134.0 1712.0,1133.0 1712.0,1132.0 1713.0,1131.0 1713.0,1129.0 1714.0,1128.0 1714.0,1127.0 1715.0,1126.0 1715.0,1125.0 1716.0,1124.0 1716.0,1123.0 1717.0,1122.0 1717.0,1120.0 1718.0,1119.0 1718.0,1117.0 1719.0,1116.0 1719.0,1115.0 1720.0,1114.0 1720.0,1113.0 1721.0,1112.0 1721.0,1110.0 1722.0,1109.0 1722.0,1108.0 1723.0,1107.0 1723.0,1106.0 1724.0,1105.0 1724.0,1103.0 1725.0,1102.0 1725.0,1101.0 1726.0,1100.0 1726.0,1099.0 1727.0,1098.0 1727.0,1096.0 1728.0,1095.0 1728.0,1094.0 1729.0,1093.0 1729.0,1092.0 1730.0,1091.0 1730.0,1089.0 1731.0,1088.0 1731.0,1087.0 1732.0,1086.0 1732.0,1084.0 1733.0,1083.0 1733.0,1082.0 1734.0,1081.0 1734.0,1080.0 1735.0,1079.0 1735.0,1077.0 1736.0,1076.0 1736.0,1075.0 1737.0,1074.0 1737.0,1073.0 1738.0,1072.0 1738.0,1071.0 1739.0,1070.0 1739.0,1068.0 1740.0,1067.0 1740.0,1066.0 1741.0,1065.0 1741.0,1063.0 1742.0,1062.0 1742.0,1061.0 1743.0,1060.0 1743.0,1059.0 1744.0,1058.0 1744.0,1056.0 1745.0,1055.0 1745.0,1054.0 1746.0,1053.0 1746.0,1051.0 1747.0,1050.0 1747.0,1049.0 1748.0,1048.0 1748.0,1046.0 1750.0,1044.0 1750.0,1042.0 1751.0,1041.0 1751.0,1040.0 1752.0,1039.0 1752.0,1037.0 1753.0,1036.0 1753.0,1035.0 1754.0,1034.0 1754.0,1033.0 1755.0,1032.0 1755.0,1030.0 1756.0,1029.0 1756.0,1028.0 1757.0,1027.0 1757.0,1025.0 1758.0,1024.0 1758.0,1023.0 1759.0,1022.0 1759.0,1021.0 1760.0,1020.0 1760.0,1018.0 1761.0,1017.0 1761.0,1016.0 1762.0,1015.0 1762.0,1013.0 1763.0,1012.0 1763.0,1011.0 1764.0,1010.0 1764.0,1009.0 1765.0,1008.0 1765.0,1006.0 1766.0,1005.0 1766.0,1004.0 1767.0,1003.0 1767.0,1001.0 1769.0,999.0 1769.0,997.0 1722.0,997.0 1722.0,999.0 1721.0,1000.0 1721.0,1002.0 1720.0,1003.0 1720.0,1004.0 1719.0,1005.0 1719.0,1007.0 1718.0,1008.0 1718.0,1010.0 1717.0,1011.0 1717.0,1012.0 1716.0,1013.0 1716.0,1015.0 1715.0,1016.0 1715.0,1017.0 1714.0,1018.0 1714.0,1020.0 1713.0,1021.0 1713.0,1023.0 1712.0,1024.0 1712.0,1025.0 1711.0,1026.0 1711.0,1028.0 1710.0,1029.0 1710.0,1030.0 1709.0,1031.0 1709.0,1033.0 1708.0,1034.0 1708.0,1035.0 1707.0,1036.0 1707.0,1038.0 1706.0,1039.0 1706.0,1041.0 1705.0,1042.0 1705.0,1043.0 1704.0,1044.0 1704.0,1046.0 1703.0,1047.0 1703.0,1048.0 1702.0,1049.0 1702.0,1051.0 1701.0,1052.0 1701.0,1054.0 1700.0,1055.0 1700.0,1056.0 1699.0,1057.0 1699.0,1059.0 1698.0,1060.0 1698.0,1061.0 1697.0,1062.0 1697.0,1064.0 1696.0,1065.0 1696.0,1067.0 1695.0,1068.0 1695.0,1069.0 1694.0,1070.0 1694.0,1072.0 1693.0,1073.0 1693.0,1074.0 1692.0,1075.0 1692.0,1077.0 1691.0,1078.0 1691.0,1079.0 1690.0,1080.0 1690.0,1082.0 1689.0,1083.0 1689.0,1084.0 1688.0,1085.0 1688.0,1087.0 1687.0,1088.0 1687.0,1090.0 1686.0,1091.0 1686.0,1092.0 1685.0,1093.0 1685.0,1095.0 1684.0,1096.0 1684.0,1098.0 1683.0,1099.0 1683.0,1100.0 1682.0,1101.0 1682.0,1102.0 1681.0,1103.0 1681.0,1105.0 1680.0,1106.0 1680.0,1108.0 1679.0,1109.0 1679.0,1110.0 1678.0,1111.0 1678.0,1113.0 1677.0,1114.0 1677.0,1116.0 1676.0,1117.0 1676.0,1118.0 1675.0,1119.0 1675.0,1121.0 1674.0,1122.0 1674.0,1123.0 1673.0,1124.0 1673.0,1126.0 1673.0,1125.0 1674.0,1124.0 1674.0,1122.0 1675.0,1121.0 1675.0,1119.0 1676.0,1118.0 1676.0,1117.0 1677.0,1116.0 1677.0,1114.0 1678.0,1113.0 1678.0,1111.0 1679.0,1110.0 1679.0,1109.0 1680.0,1108.0 1680.0,1106.0 1681.0,1105.0 1681.0,1103.0 1682.0,1102.0 1682.0,1101.0 1683.0,1100.0 1683.0,1099.0 1684.0,1098.0 1684.0,1096.0 1685.0,1095.0 1685.0,1093.0 1686.0,1092.0 1686.0,1091.0 1687.0,1090.0 1687.0,1088.0 1688.0,1087.0 1688.0,1085.0 1689.0,1084.0 1689.0,1083.0 1690.0,1082.0 1690.0,1080.0 1691.0,1079.0 1691.0,1078.0 1692.0,1077.0 1692.0,1075.0 1693.0,1074.0 1693.0,1073.0 1694.0,1072.0 1694.0,1070.0 1695.0,1069.0 1695.0,1068.0 1696.0,1067.0 1696.0,1065.0 1697.0,1064.0 1697.0,1062.0 1698.0,1061.0 1698.0,1060.0 1699.0,1059.0 1699.0,1057.0 1700.0,1056.0 1700.0,1055.0 1701.0,1054.0 1701.0,1052.0 1702.0,1051.0 1702.0,1049.0 1703.0,1048.0 1703.0,1047.0 1704.0,1046.0 1704.0,1044.0 1705.0,1043.0 1705.0,1042.0 1706.0,1041.0 1706.0,1039.0 1707.0,1038.0 1707.0,1036.0 1708.0,1035.0 1708.0,1034.0 1709.0,1033.0 1709.0,1031.0 1710.0,1030.0 1710.0,1029.0 1711.0,1028.0 1711.0,1026.0 1712.0,1025.0 1712.0,1024.0 1713.0,1023.0 1713.0,1021.0 1714.0,1020.0 1714.0,1018.0 1715.0,1017.0 1715.0,1016.0 1716.0,1015.0 1716.0,1013.0 1717.0,1012.0 1717.0,1011.0 1718.0,1010.0 1718.0,1008.0 1719.0,1007.0 1719.0,1005.0 1720.0,1004.0 1720.0,1003.0 1721.0,1002.0 1721.0,1000.0 1722.0,999.0 1722.0,998.0 1723.0,997.0 1768.0,997.0 1769.0,998.0 1768.0,999.0 1768.0,1000.0 1767.0,1001.0 1767.0,1003.0 1766.0,1004.0 1766.0,1005.0 1765.0,1006.0 1765.0,1007.0 1764.0,1008.0 1764.0,1010.0 1763.0,1011.0 1763.0,1012.0 1762.0,1013.0 1762.0,1015.0 1761.0,1016.0 1761.0,1017.0 1760.0,1018.0 1760.0,1019.0 1759.0,1020.0 1759.0,1022.0 1758.0,1023.0 1758.0,1024.0 1757.0,1025.0 1757.0,1027.0 1755.0,1029.0 1755.0,1031.0 1754.0,1032.0 1754.0,1034.0 1752.0,1036.0 1752.0,1039.0 1751.0,1040.0 1751.0,1041.0 1750.0,1042.0 1750.0,1043.0 1749.0,1044.0 1749.0,1045.0 1748.0,1046.0 1748.0,1048.0 1747.0,1049.0 1747.0,1050.0 1746.0,1051.0 1746.0,1052.0 1745.0,1053.0 1745.0,1055.0 1744.0,1056.0 1744.0,1058.0 1743.0,1059.0 1743.0,1060.0 1742.0,1061.0 1742.0,1062.0 1741.0,1063.0 1741.0,1064.0 1740.0,1065.0 1740.0,1067.0 1739.0,1068.0 1739.0,1069.0 1738.0,1070.0 1738.0,1072.0 1737.0,1073.0 1737.0,1074.0 1736.0,1075.0 1736.0,1076.0 1735.0,1077.0 1735.0,1079.0 1733.0,1081.0 1733.0,1083.0 1732.0,1084.0 1732.0,1085.0 1731.0,1086.0 1731.0,1088.0 1730.0,1089.0 1730.0,1091.0 1728.0,1093.0 1728.0,1095.0 1727.0,1096.0 1727.0,1098.0 1726.0,1099.0 1726.0,1100.0 1725.0,1101.0 1725.0,1102.0 1724.0,1103.0 1724.0,1104.0 1723.0,1105.0 1723.0,1107.0 1722.0,1108.0 1722.0,1109.0 1721.0,1110.0 1721.0,1112.0 1720.0,1113.0 1720.0,1114.0 1719.0,1115.0 1719.0,1116.0 1718.0,1117.0 1718.0,1119.0 1717.0,1120.0 1717.0,1121.0 1716.0,1122.0 1716.0,1124.0 1714.0,1126.0 1714.0,1128.0 1713.0,1129.0 1713.0,1130.0 1712.0,1131.0 1712.0,1133.0 1711.0,1134.0 1711.0,1136.0 1710.0,1137.0 1710.0,1138.0 1709.0,1139.0 1709.0,1140.0 1708.0,1141.0 1708.0,1143.0 1707.0,1144.0 1707.0,1145.0 1706.0,1146.0 1706.0,1147.0 1705.0,1148.0 1705.0,1149.0 1704.0,1150.0 1704.0,1152.0 1703.0,1153.0 1703.0,1154.0 1702.0,1155.0 1702.0,1157.0 1701.0,1158.0 1701.0,1159.0 1700.0,1160.0 1700.0,1161.0 1699.0,1162.0 1699.0,1164.0 1698.0,1165.0 1698.0,1166.0 1697.0,1167.0 1697.0,1169.0 1695.0,1171.0 1695.0,1173.0 1694.0,1174.0 1694.0,1176.0 1693.0,1177.0 1693.0,1178.0 1690.0,1181.0 1652.0,1181.0 1650.0,1179.0 1650.0,1178.0 1649.0,1177.0 1649.0,1175.0 1647.0,1173.0 1647.0,1171.0 1646.0,1170.0 1646.0,1169.0 1645.0,1168.0 1645.0,1166.0 1644.0,1165.0 1644.0,1163.0 1642.0,1161.0 1642.0,1159.0 1641.0,1158.0 1641.0,1157.0 1640.0,1156.0 1640.0,1154.0 1639.0,1153.0 1639.0,1152.0 1638.0,1151.0 1638.0,1150.0 1637.0,1149.0 1637.0,1147.0 1636.0,1146.0 1636.0,1145.0 1635.0,1144.0 1635.0,1143.0 1634.0,1142.0 1634.0,1141.0 1633.0,1140.0 1633.0,1138.0 1632.0,1137.0 1632.0,1136.0 1631.0,1135.0 1631.0,1133.0 1630.0,1132.0 1630.0,1131.0 1629.0,1130.0 1629.0,1128.0 1628.0,1127.0 1628.0,1126.0 1627.0,1125.0 1627.0,1124.0 1626.0,1123.0 1626.0,1122.0 1625.0,1121.0 1625.0,1119.0 1624.0,1118.0 1624.0,1117.0 1623.0,1116.0 1623.0,1114.0 1622.0,1113.0 1622.0,1112.0 1621.0,1111.0 1621.0,1110.0 1620.0,1109.0 1620.0,1107.0 1619.0,1106.0 1619.0,1105.0 1618.0,1104.0 1618.0,1102.0 1616.0,1100.0 1616.0,1098.0 1615.0,1097.0 1615.0,1096.0 1614.0,1095.0 1614.0,1093.0 1613.0,1092.0 1613.0,1091.0 1612.0,1090.0 1612.0,1089.0 1611.0,1088.0 1611.0,1086.0 1610.0,1085.0 1610.0,1083.0 1608.0,1081.0 1608.0,1079.0 1607.0,1078.0 1607.0,1077.0 1606.0,1076.0 1606.0,1074.0 1605.0,1073.0 1605.0,1072.0 1604.0,1071.0 1604.0,1070.0 1603.0,1069.0 1603.0,1068.0 1602.0,1067.0 1602.0,1065.0 1601.0,1064.0 1601.0,1063.0 1600.0,1062.0 1600.0,1060.0 1599.0,1059.0 1599.0,1058.0 1598.0,1057.0 1598.0,1055.0 1597.0,1054.0 1597.0,1053.0 1596.0,1052.0 1596.0,1051.0 1595.0,1050.0 1595.0,1049.0 1594.0,1048.0 1594.0,1046.0 1593.0,1045.0 1593.0,1043.0 1591.0,1041.0 1591.0,1039.0 1590.0,1038.0 1590.0,1037.0 1589.0,1036.0 1589.0,1034.0 1588.0,1033.0 1588.0,1032.0 1587.0,1031.0 1587.0,1029.0 1586.0,1028.0 1586.0,1027.0 1585.0,1026.0 1585.0,1024.0 1584.0,1023.0 1584.0,1022.0 1583.0,1021.0 1583.0,1020.0 1582.0,1019.0 1582.0,1018.0 1581.0,1017.0 1581.0,1015.0 1580.0,1014.0 1580.0,1013.0 1579.0,1012.0 1579.0,1011.0 1578.0,1010.0 1578.0,1009.0 1577.0,1008.0 1577.0,1006.0 1576.0,1005.0 1576.0,1004.0 1575.0,1003.0 1575.0,1001.0 1574.0,1000.0 1574.0,999.0 1573.0,998.0 1574.0,997.0 1619.0,997.0 1621.0,999.0 1621.0,1000.0 1622.0,1001.0 1622.0,1002.0 1623.0,1003.0 1623.0,1005.0 1624.0,1006.0 1624.0,1007.0 1625.0,1008.0 1625.0,1010.0 1626.0,1011.0 1626.0,1012.0 1627.0,1013.0 1627.0,1015.0 1628.0,1016.0 1628.0,1017.0 1629.0,1018.0 1629.0,1020.0 1630.0,1021.0 1630.0,1022.0 1631.0,1023.0 1631.0,1025.0 1632.0,1026.0 1632.0,1028.0 1633.0,1029.0 1633.0,1030.0 1634.0,1031.0 1634.0,1033.0 1635.0,1034.0 1635.0,1035.0 1636.0,1036.0 1636.0,1037.0 1637.0,1038.0 1637.0,1040.0 1638.0,1041.0 1638.0,1042.0 1639.0,1043.0 1639.0,1045.0 1640.0,1046.0 1640.0,1047.0 1641.0,1048.0 1641.0,1050.0 1642.0,1051.0 1642.0,1052.0 1643.0,1053.0 1643.0,1054.0 1644.0,1055.0 1644.0,1057.0 1645.0,1058.0 1645.0,1059.0 1646.0,1060.0 1646.0,1062.0 1647.0,1063.0 1647.0,1064.0 1648.0,1065.0 1648.0,1067.0 1649.0,1068.0 1649.0,1070.0 1650.0,1071.0 1650.0,1072.0 1651.0,1073.0 1651.0,1075.0 1652.0,1076.0 1652.0,1077.0 1653.0,1078.0 1653.0,1079.0 1654.0,1080.0 1654.0,1082.0 1655.0,1083.0 1655.0,1084.0 1656.0,1085.0 1656.0,1087.0 1657.0,1088.0 1657.0,1089.0 1658.0,1090.0 1658.0,1092.0 1659.0,1093.0 1659.0,1094.0 1660.0,1095.0 1660.0,1098.0 1661.0,1099.0 1661.0,1100.0 1662.0,1101.0 1662.0,1102.0 1663.0,1103.0 1663.0,1104.0 1664.0,1105.0 1664.0,1107.0 1665.0,1108.0 1665.0,1109.0 1666.0,1110.0 1666.0,1111.0 1667.0,1112.0 1667.0,1114.0 1668.0,1115.0 1668.0,1116.0 1669.0,1117.0 1669.0,1119.0 1670.0,1120.0 1670.0,1122.0 1671.0,1123.0 1671.0,1126.0 1671.0,1123.0 1670.0,1122.0 1670.0,1120.0 1669.0,1119.0 1669.0,1117.0 1668.0,1116.0 1668.0,1115.0 1667.0,1114.0 1667.0,1112.0 1666.0,1111.0 1666.0,1109.0 1665.0,1108.0 1665.0,1107.0 1664.0,1106.0 1664.0,1105.0 1663.0,1104.0 1663.0,1102.0 1661.0,1100.0 1661.0,1098.0 1660.0,1097.0 1660.0,1095.0 1659.0,1094.0 1659.0,1093.0 1658.0,1092.0 1658.0,1090.0 1657.0,1089.0 1657.0,1087.0 1656.0,1086.0 1656.0,1085.0 1655.0,1084.0 1655.0,1083.0 1654.0,1082.0 1654.0,1080.0 1653.0,1079.0 1653.0,1078.0 1652.0,1077.0 1652.0,1075.0 1651.0,1074.0 1651.0,1073.0 1650.0,1072.0 1650.0,1071.0 1649.0,1070.0 1649.0,1068.0 1648.0,1067.0 1648.0,1065.0 1647.0,1064.0 1647.0,1063.0 1646.0,1062.0 1646.0,1060.0 1645.0,1059.0 1645.0,1058.0 1644.0,1057.0 1644.0,1055.0 1643.0,1054.0 1643.0,1053.0 1642.0,1052.0 1642.0,1051.0 1641.0,1050.0 1641.0,1048.0 1640.0,1047.0 1640.0,1046.0 1639.0,1045.0 1639.0,1043.0 1638.0,1042.0 1638.0,1041.0 1637.0,1040.0 1637.0,1038.0 1636.0,1037.0 1636.0,1036.0 1635.0,1035.0 1635.0,1033.0 1634.0,1032.0 1634.0,1031.0 1633.0,1030.0 1633.0,1028.0 1632.0,1027.0 1632.0,1026.0 1631.0,1025.0 1631.0,1023.0 1630.0,1022.0 1630.0,1021.0 1629.0,1020.0 1629.0,1018.0 1628.0,1017.0 1628.0,1016.0 1627.0,1015.0 1627.0,1013.0 1626.0,1012.0 1626.0,1011.0 1625.0,1010.0 1625.0,1008.0 1624.0,1007.0 1624.0,1006.0 1623.0,1005.0 1623.0,1003.0 1622.0,1002.0 1622.0,1001.0 1621.0,1000.0 1621.0,999.0 1620.0,998.0 1620.0,997.0"
            stroke="red"/>
  <polyline fill="none"
            points="1395.0,997.0 1395.0,1000.0 1394.0,1001.0 1394.0,1006.0 1395.0,1007.0 1394.0,1008.0 1394.0,1168.0 1395.0,1169.0 1395.0,1172.0 1394.0,1173.0 1394.0,1174.0 1395.0,1175.0 1394.0,1176.0 1395.0,1177.0 1395.0,1181.0 1541.0,1181.0 1541.0,1143.0 1540.0,1143.0 1539.0,1142.0 1440.0,1142.0 1439.0,1141.0 1439.0,1107.0 1440.0,1106.0 1526.0,1106.0 1526.0,1069.0 1440.0,1069.0 1439.0,1068.0 1439.0,1036.0 1440.0,1035.0 1538.0,1035.0 1538.0,997.0"
            stroke="red"/>
  <polyline fill="none"
            points="1159.0,997.0 1159.0,1181.0 1258.0,1181.0 1259.0,1180.0 1265.0,1180.0 1266.0,1179.0 1271.0,1179.0 1272.0,1178.0 1275.0,1178.0 1276.0,1177.0 1278.0,1177.0 1279.0,1176.0 1281.0,1176.0 1282.0,1175.0 1284.0,1175.0 1285.0,1174.0 1287.0,1174.0 1288.0,1173.0 1289.0,1173.0 1290.0,1172.0 1292.0,1172.0 1293.0,1171.0 1294.0,1171.0 1295.0,1170.0 1296.0,1170.0 1297.0,1169.0 1298.0,1169.0 1299.0,1168.0 1300.0,1168.0 1302.0,1166.0 1303.0,1166.0 1305.0,1164.0 1306.0,1164.0 1308.0,1162.0 1309.0,1162.0 1313.0,1158.0 1314.0,1158.0 1323.0,1149.0 1323.0,1148.0 1327.0,1144.0 1327.0,1143.0 1329.0,1141.0 1329.0,1140.0 1331.0,1138.0 1331.0,1137.0 1332.0,1136.0 1332.0,1135.0 1333.0,1134.0 1333.0,1133.0 1334.0,1132.0 1334.0,1131.0 1335.0,1130.0 1335.0,1128.0 1336.0,1127.0 1336.0,1126.0 1337.0,1125.0 1337.0,1124.0 1338.0,1123.0 1338.0,1121.0 1339.0,1120.0 1339.0,1117.0 1340.0,1116.0 1340.0,1114.0 1341.0,1113.0 1341.0,1109.0 1342.0,1108.0 1342.0,1103.0 1343.0,1102.0 1343.0,1092.0 1344.0,1091.0 1344.0,1088.0 1343.0,1087.0 1343.0,1076.0 1342.0,1075.0 1342.0,1070.0 1341.0,1069.0 1341.0,1065.0 1340.0,1064.0 1340.0,1061.0 1339.0,1060.0 1339.0,1059.0 1338.0,1058.0 1338.0,1056.0 1337.0,1055.0 1337.0,1053.0 1336.0,1052.0 1336.0,1050.0 1335.0,1049.0 1335.0,1048.0 1334.0,1047.0 1334.0,1046.0 1333.0,1045.0 1333.0,1044.0 1332.0,1043.0 1332.0,1042.0 1331.0,1041.0 1331.0,1040.0 1329.0,1038.0 1329.0,1037.0 1326.0,1034.0 1326.0,1033.0 1323.0,1030.0 1323.0,1029.0 1313.0,1019.0 1312.0,1019.0 1308.0,1015.0 1307.0,1015.0 1305.0,1013.0 1304.0,1013.0 1302.0,1011.0 1301.0,1011.0 1300.0,1010.0 1299.0,1010.0 1298.0,1009.0 1297.0,1009.0 1296.0,1008.0 1295.0,1008.0 1294.0,1007.0 1293.0,1007.0 1292.0,1006.0 1291.0,1006.0 1290.0,1005.0 1288.0,1005.0 1287.0,1004.0 1285.0,1004.0 1284.0,1003.0 1283.0,1003.0 1282.0,1002.0 1280.0,1002.0 1279.0,1001.0 1276.0,1001.0 1275.0,1000.0 1272.0,1000.0 1271.0,999.0 1268.0,999.0 1267.0,998.0 1262.0,998.0 1261.0,997.0"
            stroke="red"/>
  <polyline fill="none"
            points="941.0,997.0 941.0,1179.0 942.0,1180.0 942.0,1181.0 984.0,1181.0 984.0,1178.0 985.0,1177.0 985.0,1176.0 984.0,1175.0 984.0,1119.0 986.0,1117.0 1015.0,1117.0 1017.0,1119.0 1017.0,1120.0 1018.0,1121.0 1018.0,1122.0 1020.0,1124.0 1020.0,1125.0 1022.0,1127.0 1022.0,1128.0 1024.0,1130.0 1024.0,1131.0 1026.0,1133.0 1026.0,1134.0 1027.0,1135.0 1027.0,1136.0 1029.0,1138.0 1029.0,1139.0 1031.0,1141.0 1031.0,1142.0 1033.0,1144.0 1033.0,1145.0 1035.0,1147.0 1035.0,1148.0 1036.0,1149.0 1036.0,1150.0 1038.0,1152.0 1038.0,1153.0 1040.0,1155.0 1040.0,1156.0 1041.0,1157.0 1041.0,1158.0 1043.0,1160.0 1043.0,1161.0 1045.0,1163.0 1045.0,1164.0 1047.0,1166.0 1047.0,1167.0 1048.0,1168.0 1048.0,1169.0 1050.0,1171.0 1050.0,1172.0 1052.0,1174.0 1052.0,1175.0 1054.0,1177.0 1054.0,1178.0 1056.0,1180.0 1056.0,1181.0 1108.0,1181.0 1108.0,1179.0 1106.0,1177.0 1106.0,1176.0 1105.0,1175.0 1105.0,1174.0 1103.0,1172.0 1103.0,1171.0 1101.0,1169.0 1101.0,1168.0 1099.0,1166.0 1099.0,1165.0 1097.0,1163.0 1097.0,1162.0 1095.0,1160.0 1095.0,1159.0 1094.0,1158.0 1094.0,1157.0 1092.0,1155.0 1092.0,1154.0 1090.0,1152.0 1090.0,1151.0 1088.0,1149.0 1088.0,1148.0 1086.0,1146.0 1086.0,1145.0 1084.0,1143.0 1084.0,1142.0 1082.0,1140.0 1082.0,1139.0 1081.0,1138.0 1081.0,1137.0 1079.0,1135.0 1079.0,1134.0 1077.0,1132.0 1077.0,1131.0 1075.0,1129.0 1075.0,1128.0 1073.0,1126.0 1073.0,1125.0 1071.0,1123.0 1071.0,1122.0 1069.0,1120.0 1069.0,1119.0 1068.0,1118.0 1068.0,1117.0 1066.0,1115.0 1066.0,1114.0 1064.0,1112.0 1064.0,1111.0 1065.0,1110.0 1066.0,1110.0 1067.0,1109.0 1068.0,1109.0 1069.0,1108.0 1070.0,1108.0 1071.0,1107.0 1072.0,1107.0 1074.0,1105.0 1075.0,1105.0 1079.0,1101.0 1080.0,1101.0 1085.0,1096.0 1085.0,1095.0 1089.0,1091.0 1089.0,1090.0 1091.0,1088.0 1091.0,1087.0 1092.0,1086.0 1092.0,1085.0 1093.0,1084.0 1093.0,1083.0 1094.0,1082.0 1094.0,1080.0 1095.0,1079.0 1095.0,1078.0 1096.0,1077.0 1096.0,1075.0 1097.0,1074.0 1097.0,1072.0 1098.0,1071.0 1098.0,1067.0 1099.0,1066.0 1099.0,1045.0 1098.0,1044.0 1098.0,1040.0 1097.0,1039.0 1097.0,1037.0 1096.0,1036.0 1096.0,1034.0 1095.0,1033.0 1095.0,1031.0 1094.0,1030.0 1094.0,1029.0 1093.0,1028.0 1093.0,1027.0 1092.0,1026.0 1092.0,1025.0 1090.0,1023.0 1090.0,1022.0 1087.0,1019.0 1087.0,1018.0 1080.0,1011.0 1079.0,1011.0 1076.0,1008.0 1075.0,1008.0 1074.0,1007.0 1073.0,1007.0 1071.0,1005.0 1070.0,1005.0 1069.0,1004.0 1068.0,1004.0 1067.0,1003.0 1065.0,1003.0 1064.0,1002.0 1063.0,1002.0 1062.0,1001.0 1060.0,1001.0 1059.0,1000.0 1057.0,1000.0 1056.0,999.0 1053.0,999.0 1052.0,998.0 1048.0,998.0 1047.0,997.0"
            stroke="red"/>
  <polyline fill="none"
            points="739.0,997.0 739.0,1179.0 740.0,1180.0 740.0,1181.0 885.0,1181.0 885.0,1180.0 886.0,1179.0 886.0,1144.0 884.0,1142.0 883.0,1142.0 882.0,1143.0 792.0,1143.0 791.0,1142.0 784.0,1142.0 783.0,1141.0 783.0,1108.0 785.0,1106.0 871.0,1106.0 871.0,1069.0 785.0,1069.0 783.0,1067.0 783.0,1037.0 785.0,1035.0 883.0,1035.0 883.0,997.0"
            stroke="red"/>
  <polyline fill="none"
            points="347.0,997.0 347.0,998.0 346.0,999.0 346.0,1001.0 345.0,1002.0 345.0,1003.0 344.0,1004.0 344.0,1005.0 343.0,1006.0 343.0,1008.0 342.0,1009.0 342.0,1010.0 341.0,1011.0 341.0,1012.0 340.0,1013.0 340.0,1015.0 339.0,1016.0 339.0,1017.0 338.0,1018.0 338.0,1019.0 337.0,1020.0 337.0,1022.0 335.0,1024.0 335.0,1026.0 334.0,1027.0 334.0,1028.0 333.0,1029.0 333.0,1031.0 332.0,1032.0 332.0,1033.0 331.0,1034.0 331.0,1035.0 330.0,1036.0 330.0,1037.0 329.0,1038.0 329.0,1040.0 328.0,1041.0 328.0,1042.0 327.0,1043.0 327.0,1044.0 326.0,1045.0 326.0,1047.0 325.0,1048.0 325.0,1049.0 324.0,1050.0 324.0,1052.0 323.0,1053.0 323.0,1054.0 322.0,1055.0 322.0,1056.0 321.0,1057.0 321.0,1058.0 320.0,1059.0 320.0,1060.0 319.0,1061.0 319.0,1063.0 318.0,1064.0 318.0,1065.0 317.0,1066.0 317.0,1067.0 316.0,1068.0 316.0,1069.0 315.0,1070.0 315.0,1072.0 314.0,1073.0 314.0,1074.0 313.0,1075.0 313.0,1077.0 311.0,1079.0 311.0,1081.0 310.0,1082.0 310.0,1084.0 308.0,1086.0 308.0,1088.0 307.0,1089.0 307.0,1091.0 305.0,1093.0 305.0,1095.0 304.0,1096.0 304.0,1097.0 303.0,1098.0 303.0,1100.0 302.0,1101.0 302.0,1102.0 301.0,1103.0 301.0,1104.0 300.0,1105.0 300.0,1107.0 299.0,1108.0 299.0,1109.0 298.0,1110.0 298.0,1111.0 297.0,1112.0 297.0,1113.0 296.0,1114.0 296.0,1116.0 295.0,1117.0 295.0,1118.0 294.0,1119.0 294.0,1120.0 293.0,1121.0 293.0,1123.0 291.0,1125.0 291.0,1127.0 290.0,1128.0 290.0,1129.0 289.0,1130.0 289.0,1132.0 288.0,1133.0 288.0,1134.0 287.0,1135.0 287.0,1136.0 286.0,1137.0 286.0,1138.0 285.0,1139.0 285.0,1141.0 284.0,1142.0 284.0,1143.0 283.0,1144.0 283.0,1146.0 281.0,1148.0 281.0,1150.0 280.0,1151.0 280.0,1153.0 278.0,1155.0 278.0,1157.0 277.0,1158.0 277.0,1159.0 276.0,1160.0 276.0,1161.0 275.0,1162.0 275.0,1164.0 274.0,1165.0 274.0,1166.0 273.0,1167.0 273.0,1168.0 272.0,1169.0 272.0,1171.0 271.0,1172.0 271.0,1173.0 270.0,1174.0 270.0,1175.0 269.0,1176.0 269.0,1178.0 268.0,1179.0 268.0,1181.0 312.0,1181.0 314.0,1179.0 314.0,1177.0 315.0,1176.0 315.0,1174.0 316.0,1173.0 316.0,1172.0 317.0,1171.0 317.0,1170.0 318.0,1169.0 318.0,1167.0 319.0,1166.0 319.0,1165.0 320.0,1164.0 320.0,1163.0 321.0,1162.0 321.0,1160.0 322.0,1159.0 322.0,1158.0 323.0,1157.0 323.0,1156.0 324.0,1155.0 324.0,1154.0 325.0,1153.0 325.0,1151.0 326.0,1150.0 326.0,1149.0 328.0,1147.0 406.0,1147.0 408.0,1149.0 408.0,1151.0 409.0,1152.0 409.0,1153.0 410.0,1154.0 410.0,1155.0 411.0,1156.0 411.0,1158.0 412.0,1159.0 412.0,1160.0 413.0,1161.0 413.0,1163.0 414.0,1164.0 414.0,1165.0 415.0,1166.0 415.0,1167.0 416.0,1168.0 416.0,1169.0 417.0,1170.0 417.0,1172.0 418.0,1173.0 418.0,1174.0 419.0,1175.0 419.0,1177.0 420.0,1178.0 420.0,1179.0 421.0,1180.0 421.0,1181.0 467.0,1181.0 467.0,1179.0 466.0,1178.0 466.0,1177.0 465.0,1176.0 465.0,1174.0 464.0,1173.0 464.0,1171.0 462.0,1169.0 462.0,1167.0 461.0,1166.0 461.0,1164.0 459.0,1162.0 459.0,1160.0 458.0,1159.0 458.0,1158.0 457.0,1157.0 457.0,1156.0 456.0,1155.0 456.0,1153.0 455.0,1152.0 455.0,1151.0 454.0,1150.0 454.0,1149.0 453.0,1148.0 453.0,1146.0 452.0,1145.0 452.0,1144.0 451.0,1143.0 451.0,1142.0 450.0,1141.0 450.0,1139.0 449.0,1138.0 449.0,1137.0 448.0,1136.0 448.0,1135.0 447.0,1134.0 447.0,1133.0 446.0,1132.0 446.0,1130.0 445.0,1129.0 445.0,1127.0 443.0,1125.0 443.0,1123.0 442.0,1122.0 442.0,1121.0 441.0,1120.0 441.0,1119.0 440.0,1118.0 440.0,1116.0 439.0,1115.0 439.0,1114.0 438.0,1113.0 438.0,1112.0 437.0,1111.0 437.0,1109.0 436.0,1108.0 436.0,1107.0 435.0,1106.0 435.0,1105.0 434.0,1104.0 434.0,1102.0 433.0,1101.0 433.0,1100.0 432.0,1099.0 432.0,1098.0 431.0,1097.0 431.0,1095.0 430.0,1094.0 430.0,1093.0 429.0,1092.0 429.0,1091.0 428.0,1090.0 428.0,1088.0 427.0,1087.0 427.0,1086.0 426.0,1085.0 426.0,1084.0 425.0,1083.0 425.0,1081.0 423.0,1079.0 423.0,1077.0 422.0,1076.0 422.0,1074.0 420.0,1072.0 420.0,1070.0 419.0,1069.0 419.0,1067.0 417.0,1065.0 417.0,1063.0 416.0,1062.0 416.0,1061.0 415.0,1060.0 415.0,1059.0 414.0,1058.0 414.0,1056.0 413.0,1055.0 413.0,1054.0 412.0,1053.0 412.0,1051.0 411.0,1050.0 411.0,1049.0 410.0,1048.0 410.0,1047.0 409.0,1046.0 409.0,1045.0 408.0,1044.0 408.0,1043.0 407.0,1042.0 407.0,1040.0 406.0,1039.0 406.0,1038.0 405.0,1037.0 405.0,1036.0 404.0,1035.0 404.0,1033.0 403.0,1032.0 403.0,1031.0 402.0,1030.0 402.0,1028.0 401.0,1027.0 401.0,1026.0 400.0,1025.0 400.0,1024.0 399.0,1023.0 399.0,1022.0 398.0,1021.0 398.0,1019.0 397.0,1018.0 397.0,1017.0 396.0,1016.0 396.0,1015.0 395.0,1014.0 395.0,1012.0 394.0,1011.0 394.0,1010.0 393.0,1009.0 393.0,1008.0 392.0,1007.0 392.0,1005.0 391.0,1004.0 391.0,1003.0 390.0,1002.0 390.0,1001.0 389.0,1000.0 389.0,998.0 388.0,997.0"
            stroke="red"/>
  <polyline fill="none"
            points="91.0,997.0 91.0,998.0 90.0,999.0 90.0,1000.0 91.0,1001.0 91.0,1176.0 90.0,1177.0 90.0,1179.0 91.0,1180.0 91.0,1181.0 236.0,1181.0 237.0,1180.0 237.0,1143.0 232.0,1143.0 231.0,1142.0 230.0,1143.0 141.0,1143.0 140.0,1142.0 136.0,1142.0 135.0,1141.0 135.0,1107.0 136.0,1106.0 222.0,1106.0 222.0,1069.0 136.0,1069.0 135.0,1068.0 135.0,1036.0 136.0,1035.0 234.0,1035.0 234.0,997.0"
            stroke="red"/>
  <polyline fill="none"
            points="582.0,993.0 581.0,994.0 575.0,994.0 574.0,995.0 569.0,995.0 568.0,996.0 564.0,996.0 563.0,997.0 561.0,997.0 560.0,998.0 557.0,998.0 556.0,999.0 554.0,999.0 553.0,1000.0 551.0,1000.0 550.0,1001.0 549.0,1001.0 548.0,1002.0 546.0,1002.0 545.0,1003.0 544.0,1003.0 543.0,1004.0 542.0,1004.0 541.0,1005.0 539.0,1005.0 537.0,1007.0 536.0,1007.0 535.0,1008.0 534.0,1008.0 533.0,1009.0 532.0,1009.0 530.0,1011.0 529.0,1011.0 527.0,1013.0 526.0,1013.0 523.0,1016.0 522.0,1016.0 516.0,1022.0 515.0,1022.0 512.0,1025.0 511.0,1024.0 512.0,1025.0 512.0,1026.0 507.0,1031.0 507.0,1032.0 504.0,1035.0 504.0,1036.0 502.0,1038.0 502.0,1039.0 501.0,1040.0 501.0,1041.0 499.0,1043.0 499.0,1044.0 498.0,1045.0 498.0,1046.0 497.0,1047.0 497.0,1048.0 496.0,1049.0 496.0,1051.0 495.0,1052.0 495.0,1053.0 494.0,1054.0 494.0,1056.0 493.0,1057.0 493.0,1059.0 492.0,1060.0 492.0,1062.0 491.0,1063.0 491.0,1066.0 490.0,1067.0 490.0,1072.0 489.0,1073.0 489.0,1104.0 490.0,1105.0 490.0,1111.0 491.0,1112.0 491.0,1115.0 492.0,1116.0 492.0,1118.0 493.0,1119.0 493.0,1122.0 494.0,1123.0 494.0,1125.0 495.0,1126.0 495.0,1127.0 496.0,1128.0 496.0,1129.0 497.0,1130.0 497.0,1132.0 498.0,1133.0 498.0,1134.0 499.0,1135.0 499.0,1136.0 500.0,1137.0 500.0,1138.0 502.0,1140.0 502.0,1141.0 504.0,1143.0 504.0,1144.0 506.0,1146.0 506.0,1147.0 510.0,1151.0 510.0,1152.0 518.0,1160.0 519.0,1160.0 523.0,1164.0 524.0,1164.0 526.0,1166.0 527.0,1166.0 529.0,1168.0 530.0,1168.0 532.0,1170.0 533.0,1170.0 534.0,1171.0 535.0,1171.0 536.0,1172.0 537.0,1172.0 538.0,1173.0 539.0,1173.0 540.0,1174.0 542.0,1174.0 543.0,1175.0 544.0,1175.0 545.0,1176.0 547.0,1176.0 548.0,1177.0 550.0,1177.0 551.0,1178.0 553.0,1178.0 554.0,1179.0 556.0,1179.0 557.0,1180.0 561.0,1180.0 562.0,1181.0 565.0,1181.0 566.0,1182.0 572.0,1182.0 573.0,1183.0 583.0,1183.0 584.0,1184.0 598.0,1184.0 599.0,1183.0 610.0,1183.0 611.0,1182.0 616.0,1182.0 617.0,1181.0 621.0,1181.0 622.0,1180.0 625.0,1180.0 626.0,1179.0 628.0,1179.0 629.0,1178.0 632.0,1178.0 633.0,1177.0 634.0,1177.0 635.0,1176.0 637.0,1176.0 638.0,1175.0 640.0,1175.0 641.0,1174.0 642.0,1174.0 643.0,1173.0 644.0,1173.0 645.0,1172.0 646.0,1172.0 647.0,1171.0 648.0,1171.0 649.0,1170.0 650.0,1170.0 651.0,1169.0 652.0,1169.0 654.0,1167.0 655.0,1167.0 657.0,1165.0 658.0,1165.0 661.0,1162.0 662.0,1162.0 673.0,1151.0 673.0,1150.0 675.0,1148.0 675.0,1147.0 677.0,1145.0 677.0,1144.0 679.0,1142.0 679.0,1141.0 680.0,1140.0 680.0,1139.0 681.0,1138.0 681.0,1137.0 682.0,1136.0 682.0,1135.0 683.0,1134.0 683.0,1132.0 684.0,1131.0 684.0,1129.0 685.0,1128.0 685.0,1126.0 686.0,1125.0 686.0,1123.0 687.0,1122.0 687.0,1118.0 688.0,1117.0 688.0,1110.0 689.0,1109.0 689.0,1091.0 688.0,1090.0 688.0,1080.0 686.0,1078.0 593.0,1078.0 592.0,1079.0 591.0,1079.0 591.0,1113.0 592.0,1113.0 593.0,1114.0 643.0,1114.0 644.0,1115.0 644.0,1117.0 643.0,1118.0 643.0,1120.0 641.0,1122.0 641.0,1123.0 640.0,1124.0 640.0,1125.0 631.0,1134.0 630.0,1134.0 629.0,1135.0 628.0,1135.0 626.0,1137.0 625.0,1137.0 624.0,1138.0 622.0,1138.0 621.0,1139.0 620.0,1139.0 619.0,1140.0 617.0,1140.0 616.0,1141.0 614.0,1141.0 613.0,1142.0 610.0,1142.0 609.0,1143.0 602.0,1143.0 601.0,1144.0 590.0,1144.0 589.0,1143.0 582.0,1143.0 581.0,1142.0 578.0,1142.0 577.0,1141.0 574.0,1141.0 573.0,1140.0 572.0,1140.0 571.0,1139.0 569.0,1139.0 568.0,1138.0 567.0,1138.0 566.0,1137.0 565.0,1137.0 564.0,1136.0 563.0,1136.0 562.0,1135.0 561.0,1135.0 559.0,1133.0 558.0,1133.0 555.0,1130.0 554.0,1130.0 548.0,1124.0 548.0,1123.0 544.0,1119.0 544.0,1118.0 543.0,1117.0 543.0,1116.0 541.0,1114.0 541.0,1113.0 540.0,1112.0 540.0,1111.0 539.0,1110.0 539.0,1108.0 538.0,1107.0 538.0,1105.0 537.0,1104.0 537.0,1101.0 536.0,1100.0 536.0,1095.0 535.0,1094.0 535.0,1084.0 536.0,1083.0 536.0,1077.0 537.0,1076.0 537.0,1073.0 538.0,1072.0 538.0,1070.0 539.0,1069.0 539.0,1067.0 541.0,1065.0 541.0,1064.0 542.0,1063.0 542.0,1062.0 543.0,1061.0 543.0,1060.0 545.0,1058.0 545.0,1057.0 557.0,1045.0 558.0,1045.0 560.0,1043.0 561.0,1043.0 563.0,1041.0 564.0,1041.0 565.0,1040.0 566.0,1040.0 567.0,1039.0 568.0,1039.0 569.0,1038.0 570.0,1038.0 571.0,1037.0 572.0,1037.0 573.0,1036.0 575.0,1036.0 576.0,1035.0 579.0,1035.0 580.0,1034.0 585.0,1034.0 586.0,1033.0 604.0,1033.0 605.0,1034.0 610.0,1034.0 611.0,1035.0 613.0,1035.0 614.0,1036.0 617.0,1036.0 618.0,1037.0 620.0,1037.0 621.0,1038.0 623.0,1038.0 624.0,1039.0 625.0,1039.0 626.0,1040.0 627.0,1040.0 628.0,1041.0 629.0,1041.0 630.0,1042.0 631.0,1042.0 633.0,1044.0 634.0,1044.0 635.0,1045.0 636.0,1045.0 638.0,1047.0 639.0,1047.0 641.0,1049.0 642.0,1049.0 645.0,1052.0 647.0,1052.0 648.0,1053.0 657.0,1044.0 657.0,1043.0 669.0,1031.0 669.0,1030.0 670.0,1029.0 671.0,1029.0 673.0,1027.0 673.0,1026.0 674.0,1025.0 674.0,1022.0 670.0,1018.0 669.0,1018.0 665.0,1014.0 664.0,1014.0 662.0,1012.0 661.0,1012.0 659.0,1010.0 658.0,1010.0 656.0,1008.0 655.0,1008.0 654.0,1007.0 653.0,1007.0 652.0,1006.0 651.0,1006.0 650.0,1005.0 648.0,1005.0 646.0,1003.0 644.0,1003.0 643.0,1002.0 641.0,1002.0 640.0,1001.0 639.0,1001.0 638.0,1000.0 636.0,1000.0 635.0,999.0 633.0,999.0 632.0,998.0 630.0,998.0 629.0,997.0 626.0,997.0 625.0,996.0 622.0,996.0 621.0,995.0 617.0,995.0 616.0,994.0 609.0,994.0 608.0,993.0"
            stroke="red"/>
  <polyline fill="none"
            points="1869.0,992.0 1868.0,993.0 1860.0,993.0 1859.0,994.0 1854.0,994.0 1853.0,995.0 1850.0,995.0 1849.0,996.0 1846.0,996.0 1845.0,997.0 1843.0,997.0 1842.0,998.0 1840.0,998.0 1839.0,999.0 1837.0,999.0 1836.0,1000.0 1835.0,1000.0 1834.0,1001.0 1832.0,1001.0 1831.0,1002.0 1830.0,1002.0 1829.0,1003.0 1828.0,1003.0 1827.0,1004.0 1826.0,1004.0 1825.0,1005.0 1824.0,1005.0 1822.0,1007.0 1821.0,1007.0 1818.0,1010.0 1817.0,1010.0 1807.0,1020.0 1807.0,1021.0 1805.0,1023.0 1805.0,1024.0 1803.0,1026.0 1803.0,1027.0 1802.0,1028.0 1802.0,1029.0 1801.0,1030.0 1801.0,1032.0 1800.0,1033.0 1800.0,1034.0 1799.0,1035.0 1799.0,1038.0 1798.0,1039.0 1798.0,1045.0 1797.0,1046.0 1797.0,1054.0 1798.0,1055.0 1798.0,1062.0 1799.0,1063.0 1799.0,1065.0 1800.0,1066.0 1800.0,1068.0 1801.0,1069.0 1801.0,1071.0 1802.0,1072.0 1802.0,1073.0 1803.0,1074.0 1803.0,1075.0 1805.0,1077.0 1805.0,1078.0 1807.0,1080.0 1807.0,1081.0 1815.0,1089.0 1816.0,1089.0 1818.0,1091.0 1819.0,1091.0 1822.0,1094.0 1823.0,1094.0 1824.0,1095.0 1825.0,1095.0 1826.0,1096.0 1827.0,1096.0 1828.0,1097.0 1829.0,1097.0 1830.0,1098.0 1832.0,1098.0 1833.0,1099.0 1834.0,1099.0 1835.0,1100.0 1837.0,1100.0 1838.0,1101.0 1840.0,1101.0 1841.0,1102.0 1843.0,1102.0 1844.0,1103.0 1847.0,1103.0 1848.0,1104.0 1850.0,1104.0 1851.0,1105.0 1855.0,1105.0 1856.0,1106.0 1860.0,1106.0 1861.0,1107.0 1866.0,1107.0 1867.0,1108.0 1872.0,1108.0 1873.0,1109.0 1876.0,1109.0 1877.0,1110.0 1881.0,1110.0 1882.0,1111.0 1887.0,1111.0 1888.0,1112.0 1890.0,1112.0 1891.0,1113.0 1893.0,1113.0 1894.0,1114.0 1896.0,1114.0 1897.0,1115.0 1898.0,1115.0 1899.0,1116.0 1900.0,1116.0 1901.0,1117.0 1902.0,1117.0 1909.0,1124.0 1909.0,1127.0 1910.0,1128.0 1910.0,1129.0 1909.0,1130.0 1909.0,1133.0 1908.0,1134.0 1908.0,1135.0 1903.0,1140.0 1902.0,1140.0 1901.0,1141.0 1900.0,1141.0 1899.0,1142.0 1898.0,1142.0 1897.0,1143.0 1896.0,1143.0 1895.0,1144.0 1892.0,1144.0 1891.0,1145.0 1883.0,1145.0 1882.0,1146.0 1875.0,1146.0 1874.0,1145.0 1866.0,1145.0 1865.0,1144.0 1860.0,1144.0 1859.0,1143.0 1856.0,1143.0 1855.0,1142.0 1853.0,1142.0 1852.0,1141.0 1850.0,1141.0 1849.0,1140.0 1847.0,1140.0 1846.0,1139.0 1844.0,1139.0 1842.0,1137.0 1841.0,1137.0 1840.0,1136.0 1838.0,1136.0 1836.0,1134.0 1835.0,1134.0 1834.0,1133.0 1833.0,1133.0 1831.0,1131.0 1830.0,1131.0 1827.0,1128.0 1826.0,1128.0 1822.0,1124.0 1821.0,1124.0 1814.0,1117.0 1811.0,1117.0 1809.0,1119.0 1809.0,1120.0 1806.0,1123.0 1806.0,1124.0 1804.0,1126.0 1804.0,1127.0 1801.0,1130.0 1801.0,1131.0 1798.0,1134.0 1798.0,1135.0 1795.0,1138.0 1795.0,1139.0 1791.0,1143.0 1791.0,1144.0 1789.0,1146.0 1789.0,1147.0 1788.0,1148.0 1788.0,1150.0 1795.0,1157.0 1796.0,1157.0 1800.0,1161.0 1801.0,1161.0 1804.0,1164.0 1805.0,1164.0 1807.0,1166.0 1808.0,1166.0 1810.0,1168.0 1811.0,1168.0 1812.0,1169.0 1813.0,1169.0 1814.0,1170.0 1815.0,1170.0 1816.0,1171.0 1817.0,1171.0 1818.0,1172.0 1819.0,1172.0 1820.0,1173.0 1821.0,1173.0 1822.0,1174.0 1824.0,1174.0 1825.0,1175.0 1826.0,1175.0 1827.0,1176.0 1829.0,1176.0 1830.0,1177.0 1832.0,1177.0 1833.0,1178.0 1836.0,1178.0 1837.0,1179.0 1839.0,1179.0 1840.0,1180.0 1843.0,1180.0 1844.0,1181.0 1848.0,1181.0 1849.0,1182.0 1855.0,1182.0 1856.0,1183.0 1867.0,1183.0 1868.0,1184.0 1883.0,1184.0 1884.0,1183.0 1894.0,1183.0 1895.0,1182.0 1900.0,1182.0 1901.0,1181.0 1905.0,1181.0 1906.0,1180.0 1909.0,1180.0 1910.0,1179.0 1912.0,1179.0 1913.0,1178.0 1915.0,1178.0 1916.0,1177.0 1917.0,1177.0 1918.0,1176.0 1920.0,1176.0 1921.0,1175.0 1922.0,1175.0 1923.0,1174.0 1924.0,1174.0 1925.0,1173.0 1926.0,1173.0 1927.0,1172.0 1928.0,1172.0 1929.0,1171.0 1930.0,1171.0 1932.0,1169.0 1933.0,1169.0 1936.0,1166.0 1937.0,1166.0 1945.0,1158.0 1945.0,1157.0 1947.0,1155.0 1947.0,1154.0 1949.0,1152.0 1949.0,1151.0 1950.0,1150.0 1950.0,1149.0 1951.0,1148.0 1951.0,1147.0 1952.0,1146.0 1952.0,1144.0 1953.0,1143.0 1953.0,1141.0 1954.0,1140.0 1954.0,1138.0 1955.0,1137.0 1955.0,1132.0 1956.0,1131.0 1956.0,1115.0 1955.0,1114.0 1955.0,1110.0 1954.0,1109.0 1954.0,1107.0 1953.0,1106.0 1953.0,1103.0 1952.0,1102.0 1952.0,1101.0 1951.0,1100.0 1951.0,1099.0 1949.0,1097.0 1949.0,1096.0 1946.0,1093.0 1946.0,1092.0 1941.0,1087.0 1940.0,1087.0 1937.0,1084.0 1936.0,1084.0 1935.0,1083.0 1934.0,1083.0 1932.0,1081.0 1931.0,1081.0 1930.0,1080.0 1929.0,1080.0 1928.0,1079.0 1926.0,1079.0 1925.0,1078.0 1924.0,1078.0 1923.0,1077.0 1922.0,1077.0 1921.0,1076.0 1919.0,1076.0 1918.0,1075.0 1916.0,1075.0 1915.0,1074.0 1913.0,1074.0 1912.0,1073.0 1909.0,1073.0 1908.0,1072.0 1906.0,1072.0 1905.0,1071.0 1902.0,1071.0 1901.0,1070.0 1898.0,1070.0 1897.0,1069.0 1893.0,1069.0 1892.0,1068.0 1887.0,1068.0 1886.0,1067.0 1881.0,1067.0 1880.0,1066.0 1875.0,1066.0 1874.0,1065.0 1869.0,1065.0 1868.0,1064.0 1865.0,1064.0 1864.0,1063.0 1862.0,1063.0 1861.0,1062.0 1859.0,1062.0 1858.0,1061.0 1856.0,1061.0 1854.0,1059.0 1853.0,1059.0 1851.0,1057.0 1850.0,1057.0 1846.0,1053.0 1846.0,1052.0 1844.0,1050.0 1844.0,1045.0 1845.0,1044.0 1845.0,1043.0 1846.0,1042.0 1846.0,1041.0 1850.0,1037.0 1851.0,1037.0 1853.0,1035.0 1854.0,1035.0 1855.0,1034.0 1857.0,1034.0 1858.0,1033.0 1860.0,1033.0 1861.0,1032.0 1865.0,1032.0 1866.0,1031.0 1885.0,1031.0 1886.0,1032.0 1890.0,1032.0 1891.0,1033.0 1894.0,1033.0 1895.0,1034.0 1898.0,1034.0 1899.0,1035.0 1901.0,1035.0 1902.0,1036.0 1903.0,1036.0 1904.0,1037.0 1906.0,1037.0 1908.0,1039.0 1909.0,1039.0 1910.0,1040.0 1911.0,1040.0 1912.0,1041.0 1913.0,1041.0 1915.0,1043.0 1916.0,1043.0 1919.0,1046.0 1920.0,1046.0 1925.0,1051.0 1927.0,1051.0 1927.0,1050.0 1934.0,1043.0 1934.0,1042.0 1941.0,1035.0 1941.0,1034.0 1949.0,1026.0 1949.0,1025.0 1950.0,1024.0 1950.0,1023.0 1951.0,1022.0 1951.0,1021.0 1941.0,1011.0 1940.0,1011.0 1938.0,1009.0 1937.0,1009.0 1935.0,1007.0 1934.0,1007.0 1932.0,1005.0 1931.0,1005.0 1930.0,1004.0 1929.0,1004.0 1928.0,1003.0 1927.0,1003.0 1926.0,1002.0 1925.0,1002.0 1924.0,1001.0 1923.0,1001.0 1922.0,1000.0 1920.0,1000.0 1919.0,999.0 1917.0,999.0 1916.0,998.0 1914.0,998.0 1913.0,997.0 1911.0,997.0 1910.0,996.0 1907.0,996.0 1906.0,995.0 1902.0,995.0 1901.0,994.0 1896.0,994.0 1895.0,993.0 1886.0,993.0 1885.0,992.0"
            stroke="red"/>
  <polyline fill="none"
            points="775.0,94.0 774.0,95.0 774.0,96.0 772.0,98.0 772.0,99.0 770.0,101.0 770.0,102.0 767.0,105.0 767.0,106.0 765.0,108.0 765.0,109.0 763.0,111.0 763.0,112.0 761.0,114.0 761.0,115.0 759.0,117.0 759.0,118.0 757.0,120.0 757.0,121.0 754.0,124.0 754.0,125.0 752.0,127.0 752.0,128.0 750.0,130.0 750.0,131.0 748.0,133.0 748.0,134.0 746.0,136.0 746.0,137.0 743.0,140.0 743.0,141.0 741.0,143.0 741.0,144.0 739.0,146.0 739.0,147.0 737.0,149.0 737.0,150.0 735.0,152.0 735.0,153.0 733.0,155.0 733.0,156.0 730.0,159.0 730.0,160.0 729.0,161.0 729.0,162.0 726.0,165.0 726.0,166.0 724.0,168.0 724.0,169.0 722.0,171.0 722.0,172.0 719.0,175.0 719.0,176.0 718.0,177.0 718.0,178.0 715.0,181.0 715.0,182.0 714.0,183.0 714.0,188.0 715.0,189.0 715.0,190.0 716.0,191.0 716.0,193.0 717.0,194.0 717.0,195.0 718.0,196.0 718.0,197.0 719.0,198.0 719.0,199.0 720.0,200.0 720.0,202.0 721.0,203.0 721.0,204.0 722.0,205.0 722.0,206.0 723.0,207.0 723.0,209.0 724.0,210.0 724.0,211.0 725.0,212.0 725.0,213.0 726.0,214.0 726.0,216.0 727.0,217.0 727.0,218.0 728.0,219.0 728.0,220.0 729.0,221.0 729.0,222.0 730.0,223.0 730.0,225.0 731.0,226.0 731.0,228.0 733.0,230.0 733.0,232.0 734.0,233.0 734.0,235.0 735.0,236.0 735.0,237.0 736.0,238.0 736.0,239.0 737.0,240.0 737.0,242.0 739.0,244.0 739.0,246.0 740.0,247.0 740.0,249.0 742.0,251.0 742.0,253.0 743.0,254.0 743.0,255.0 744.0,256.0 744.0,258.0 745.0,259.0 745.0,260.0 746.0,261.0 746.0,262.0 747.0,263.0 747.0,264.0 748.0,265.0 748.0,267.0 749.0,268.0 749.0,269.0 750.0,270.0 750.0,271.0 751.0,272.0 751.0,274.0 752.0,275.0 752.0,276.0 753.0,277.0 753.0,278.0 754.0,279.0 754.0,283.0 751.0,286.0 751.0,287.0 749.0,289.0 749.0,290.0 746.0,293.0 746.0,294.0 744.0,296.0 744.0,297.0 742.0,299.0 742.0,300.0 739.0,303.0 739.0,304.0 737.0,306.0 737.0,307.0 735.0,309.0 735.0,310.0 732.0,313.0 732.0,314.0 730.0,316.0 730.0,317.0 727.0,320.0 727.0,321.0 725.0,323.0 725.0,324.0 724.0,325.0 724.0,328.0 725.0,329.0 725.0,330.0 726.0,330.0 728.0,332.0 729.0,332.0 733.0,336.0 734.0,336.0 737.0,339.0 738.0,339.0 741.0,342.0 742.0,342.0 745.0,345.0 746.0,345.0 748.0,347.0 748.0,348.0 747.0,349.0 747.0,351.0 745.0,353.0 745.0,355.0 744.0,356.0 744.0,357.0 743.0,358.0 743.0,359.0 742.0,360.0 742.0,361.0 741.0,362.0 741.0,363.0 740.0,364.0 740.0,365.0 739.0,366.0 739.0,367.0 738.0,368.0 738.0,370.0 736.0,372.0 736.0,373.0 735.0,374.0 735.0,375.0 734.0,376.0 734.0,377.0 733.0,378.0 733.0,379.0 732.0,380.0 732.0,381.0 731.0,382.0 731.0,384.0 730.0,385.0 730.0,386.0 729.0,387.0 729.0,388.0 728.0,389.0 728.0,390.0 727.0,391.0 727.0,392.0 726.0,393.0 726.0,394.0 725.0,395.0 725.0,396.0 724.0,397.0 724.0,399.0 723.0,400.0 723.0,401.0 721.0,403.0 721.0,404.0 720.0,405.0 720.0,406.0 719.0,407.0 719.0,408.0 718.0,409.0 718.0,410.0 717.0,411.0 717.0,413.0 716.0,414.0 716.0,415.0 715.0,416.0 715.0,417.0 714.0,418.0 714.0,419.0 713.0,420.0 713.0,421.0 712.0,422.0 712.0,423.0 711.0,424.0 711.0,425.0 710.0,426.0 710.0,427.0 709.0,428.0 709.0,429.0 708.0,430.0 708.0,431.0 707.0,432.0 707.0,433.0 706.0,434.0 706.0,435.0 705.0,436.0 705.0,437.0 704.0,438.0 704.0,439.0 703.0,440.0 703.0,442.0 702.0,443.0 702.0,444.0 701.0,445.0 701.0,448.0 702.0,449.0 702.0,450.0 721.0,450.0 722.0,451.0 722.0,455.0 721.0,456.0 721.0,460.0 720.0,461.0 720.0,463.0 719.0,464.0 719.0,468.0 718.0,469.0 718.0,472.0 717.0,473.0 717.0,476.0 716.0,477.0 716.0,481.0 715.0,482.0 715.0,484.0 714.0,485.0 714.0,489.0 713.0,490.0 713.0,493.0 712.0,494.0 712.0,498.0 711.0,499.0 711.0,502.0 710.0,503.0 710.0,506.0 709.0,507.0 709.0,510.0 708.0,511.0 708.0,515.0 707.0,516.0 707.0,518.0 706.0,519.0 706.0,523.0 705.0,524.0 705.0,527.0 704.0,528.0 704.0,531.0 703.0,532.0 703.0,535.0 702.0,536.0 702.0,539.0 701.0,540.0 701.0,544.0 700.0,545.0 700.0,548.0 699.0,549.0 699.0,552.0 698.0,553.0 698.0,556.0 697.0,557.0 697.0,560.0 696.0,561.0 696.0,564.0 695.0,565.0 695.0,569.0 694.0,570.0 694.0,577.0 695.0,578.0 696.0,578.0 706.0,588.0 707.0,588.0 717.0,598.0 718.0,598.0 731.0,611.0 732.0,611.0 739.0,618.0 743.0,618.0 744.0,619.0 754.0,619.0 755.0,620.0 764.0,620.0 765.0,621.0 774.0,621.0 776.0,623.0 776.0,661.0 777.0,662.0 778.0,662.0 779.0,663.0 824.0,663.0 826.0,665.0 826.0,666.0 827.0,667.0 827.0,668.0 829.0,670.0 829.0,671.0 830.0,672.0 830.0,673.0 832.0,675.0 832.0,676.0 833.0,677.0 833.0,678.0 834.0,679.0 834.0,680.0 835.0,681.0 835.0,682.0 837.0,684.0 837.0,685.0 838.0,686.0 838.0,687.0 840.0,689.0 840.0,690.0 841.0,691.0 841.0,692.0 842.0,693.0 842.0,694.0 844.0,696.0 844.0,697.0 845.0,698.0 845.0,699.0 846.0,700.0 846.0,701.0 848.0,703.0 848.0,704.0 849.0,705.0 849.0,706.0 850.0,707.0 850.0,708.0 852.0,710.0 852.0,711.0 853.0,712.0 853.0,713.0 855.0,715.0 855.0,716.0 856.0,717.0 856.0,718.0 857.0,719.0 857.0,720.0 859.0,722.0 859.0,723.0 860.0,724.0 860.0,725.0 861.0,726.0 861.0,727.0 863.0,729.0 863.0,730.0 864.0,731.0 864.0,732.0 865.0,733.0 865.0,734.0 870.0,739.0 870.0,740.0 874.0,744.0 874.0,745.0 879.0,750.0 879.0,751.0 883.0,755.0 883.0,756.0 888.0,761.0 888.0,762.0 894.0,768.0 894.0,769.0 898.0,773.0 898.0,774.0 904.0,780.0 904.0,783.0 905.0,784.0 905.0,787.0 906.0,788.0 906.0,790.0 907.0,791.0 907.0,795.0 908.0,796.0 908.0,798.0 909.0,799.0 909.0,802.0 910.0,803.0 910.0,806.0 911.0,807.0 911.0,810.0 912.0,811.0 912.0,814.0 913.0,815.0 913.0,817.0 914.0,818.0 914.0,819.0 915.0,820.0 917.0,820.0 918.0,821.0 920.0,821.0 921.0,822.0 923.0,822.0 924.0,823.0 926.0,823.0 927.0,824.0 929.0,824.0 930.0,825.0 933.0,825.0 934.0,826.0 936.0,826.0 937.0,827.0 939.0,827.0 940.0,828.0 942.0,828.0 943.0,829.0 945.0,829.0 946.0,830.0 948.0,830.0 949.0,831.0 951.0,831.0 952.0,832.0 954.0,832.0 955.0,833.0 957.0,833.0 958.0,834.0 960.0,834.0 961.0,835.0 963.0,835.0 964.0,836.0 966.0,836.0 967.0,837.0 969.0,837.0 970.0,838.0 972.0,838.0 973.0,839.0 975.0,839.0 976.0,840.0 978.0,840.0 979.0,841.0 981.0,841.0 982.0,842.0 984.0,842.0 985.0,843.0 987.0,843.0 988.0,844.0 990.0,844.0 991.0,845.0 993.0,845.0 994.0,846.0 996.0,846.0 997.0,847.0 999.0,847.0 1000.0,848.0 1002.0,848.0 1003.0,849.0 1005.0,849.0 1006.0,850.0 1008.0,850.0 1009.0,851.0 1011.0,851.0 1012.0,852.0 1014.0,852.0 1015.0,853.0 1017.0,853.0 1018.0,854.0 1020.0,854.0 1021.0,853.0 1023.0,853.0 1024.0,852.0 1026.0,852.0 1027.0,851.0 1029.0,851.0 1030.0,850.0 1032.0,850.0 1033.0,849.0 1035.0,849.0 1036.0,848.0 1038.0,848.0 1039.0,847.0 1041.0,847.0 1042.0,846.0 1044.0,846.0 1045.0,845.0 1047.0,845.0 1048.0,844.0 1050.0,844.0 1051.0,843.0 1053.0,843.0 1054.0,842.0 1056.0,842.0 1057.0,841.0 1059.0,841.0 1060.0,840.0 1062.0,840.0 1063.0,839.0 1066.0,839.0 1067.0,838.0 1069.0,838.0 1070.0,837.0 1072.0,837.0 1073.0,836.0 1075.0,836.0 1076.0,835.0 1078.0,835.0 1079.0,834.0 1081.0,834.0 1082.0,833.0 1084.0,833.0 1085.0,832.0 1087.0,832.0 1088.0,831.0 1090.0,831.0 1091.0,830.0 1093.0,830.0 1094.0,829.0 1096.0,829.0 1097.0,828.0 1099.0,828.0 1100.0,827.0 1102.0,827.0 1103.0,826.0 1105.0,826.0 1106.0,825.0 1108.0,825.0 1109.0,824.0 1111.0,824.0 1112.0,823.0 1114.0,823.0 1115.0,822.0 1117.0,822.0 1118.0,821.0 1120.0,821.0 1121.0,820.0 1123.0,820.0 1125.0,818.0 1125.0,817.0 1126.0,816.0 1126.0,813.0 1127.0,812.0 1127.0,809.0 1128.0,808.0 1128.0,805.0 1129.0,804.0 1129.0,801.0 1130.0,800.0 1130.0,797.0 1131.0,796.0 1131.0,794.0 1132.0,793.0 1132.0,789.0 1133.0,788.0 1133.0,786.0 1134.0,785.0 1134.0,782.0 1135.0,781.0 1135.0,780.0 1138.0,777.0 1138.0,776.0 1142.0,772.0 1142.0,771.0 1147.0,766.0 1147.0,765.0 1152.0,760.0 1152.0,759.0 1157.0,754.0 1157.0,753.0 1161.0,749.0 1161.0,748.0 1167.0,742.0 1167.0,741.0 1172.0,736.0 1172.0,735.0 1174.0,733.0 1174.0,732.0 1175.0,731.0 1175.0,730.0 1177.0,728.0 1177.0,727.0 1178.0,726.0 1178.0,725.0 1179.0,724.0 1179.0,723.0 1181.0,721.0 1181.0,720.0 1182.0,719.0 1182.0,718.0 1183.0,717.0 1183.0,716.0 1185.0,714.0 1185.0,713.0 1186.0,712.0 1186.0,711.0 1187.0,710.0 1187.0,709.0 1189.0,707.0 1189.0,706.0 1190.0,705.0 1190.0,704.0 1191.0,703.0 1191.0,702.0 1193.0,700.0 1193.0,699.0 1194.0,698.0 1194.0,697.0 1195.0,696.0 1195.0,695.0 1197.0,693.0 1197.0,692.0 1198.0,691.0 1198.0,690.0 1199.0,689.0 1199.0,688.0 1201.0,686.0 1201.0,685.0 1202.0,684.0 1202.0,683.0 1204.0,681.0 1204.0,680.0 1205.0,679.0 1205.0,678.0 1206.0,677.0 1206.0,676.0 1208.0,674.0 1208.0,673.0 1209.0,672.0 1209.0,671.0 1210.0,670.0 1210.0,669.0 1212.0,667.0 1212.0,666.0 1213.0,665.0 1213.0,664.0 1214.0,663.0 1260.0,663.0 1261.0,662.0 1262.0,662.0 1262.0,623.0 1264.0,621.0 1274.0,621.0 1275.0,620.0 1284.0,620.0 1285.0,619.0 1294.0,619.0 1295.0,618.0 1299.0,618.0 1302.0,615.0 1303.0,615.0 1313.0,605.0 1314.0,605.0 1324.0,595.0 1325.0,595.0 1335.0,585.0 1336.0,585.0 1345.0,576.0 1345.0,572.0 1344.0,571.0 1344.0,568.0 1343.0,567.0 1343.0,564.0 1342.0,563.0 1342.0,560.0 1341.0,559.0 1341.0,555.0 1340.0,554.0 1340.0,551.0 1339.0,550.0 1339.0,547.0 1338.0,546.0 1338.0,543.0 1337.0,542.0 1337.0,538.0 1336.0,537.0 1336.0,534.0 1335.0,533.0 1335.0,530.0 1334.0,529.0 1334.0,526.0 1333.0,525.0 1333.0,522.0 1332.0,521.0 1332.0,517.0 1331.0,516.0 1331.0,513.0 1330.0,512.0 1330.0,509.0 1329.0,508.0 1329.0,505.0 1328.0,504.0 1328.0,501.0 1327.0,500.0 1327.0,496.0 1326.0,495.0 1326.0,492.0 1325.0,491.0 1325.0,488.0 1324.0,487.0 1324.0,484.0 1323.0,483.0 1323.0,479.0 1322.0,478.0 1322.0,476.0 1321.0,475.0 1321.0,471.0 1320.0,470.0 1320.0,467.0 1319.0,466.0 1319.0,463.0 1318.0,462.0 1318.0,459.0 1317.0,458.0 1317.0,455.0 1316.0,454.0 1316.0,451.0 1317.0,450.0 1336.0,450.0 1338.0,448.0 1338.0,446.0 1337.0,445.0 1337.0,443.0 1335.0,441.0 1335.0,440.0 1334.0,439.0 1334.0,437.0 1332.0,435.0 1332.0,434.0 1331.0,433.0 1331.0,432.0 1330.0,431.0 1330.0,429.0 1329.0,428.0 1329.0,427.0 1328.0,426.0 1328.0,425.0 1327.0,424.0 1327.0,423.0 1326.0,422.0 1326.0,421.0 1325.0,420.0 1325.0,419.0 1324.0,418.0 1324.0,417.0 1323.0,416.0 1323.0,415.0 1322.0,414.0 1322.0,413.0 1321.0,412.0 1321.0,411.0 1320.0,410.0 1320.0,409.0 1319.0,408.0 1319.0,407.0 1318.0,406.0 1318.0,405.0 1317.0,404.0 1317.0,403.0 1316.0,402.0 1316.0,400.0 1315.0,399.0 1315.0,398.0 1314.0,397.0 1314.0,396.0 1313.0,395.0 1313.0,394.0 1312.0,393.0 1312.0,392.0 1311.0,391.0 1311.0,390.0 1310.0,389.0 1310.0,388.0 1309.0,387.0 1309.0,386.0 1308.0,385.0 1308.0,384.0 1307.0,383.0 1307.0,382.0 1306.0,381.0 1306.0,380.0 1305.0,379.0 1305.0,378.0 1304.0,377.0 1304.0,376.0 1303.0,375.0 1303.0,374.0 1302.0,373.0 1302.0,371.0 1301.0,370.0 1301.0,369.0 1300.0,368.0 1300.0,367.0 1299.0,366.0 1299.0,365.0 1298.0,364.0 1298.0,363.0 1297.0,362.0 1297.0,361.0 1296.0,360.0 1296.0,359.0 1295.0,358.0 1295.0,357.0 1294.0,356.0 1294.0,355.0 1293.0,354.0 1293.0,353.0 1292.0,352.0 1292.0,351.0 1291.0,350.0 1291.0,349.0 1290.0,348.0 1290.0,347.0 1291.0,346.0 1292.0,346.0 1295.0,343.0 1296.0,343.0 1299.0,340.0 1300.0,340.0 1303.0,337.0 1304.0,337.0 1307.0,334.0 1308.0,334.0 1311.0,331.0 1312.0,331.0 1314.0,329.0 1314.0,327.0 1315.0,326.0 1315.0,325.0 1313.0,323.0 1313.0,322.0 1310.0,319.0 1310.0,318.0 1308.0,316.0 1308.0,315.0 1305.0,312.0 1305.0,311.0 1303.0,309.0 1303.0,308.0 1300.0,305.0 1300.0,304.0 1298.0,302.0 1298.0,301.0 1295.0,298.0 1295.0,297.0 1293.0,295.0 1293.0,294.0 1290.0,291.0 1290.0,290.0 1288.0,288.0 1288.0,287.0 1286.0,285.0 1286.0,284.0 1284.0,282.0 1284.0,281.0 1285.0,280.0 1285.0,279.0 1286.0,278.0 1286.0,276.0 1287.0,275.0 1287.0,273.0 1289.0,271.0 1289.0,269.0 1290.0,268.0 1290.0,267.0 1291.0,266.0 1291.0,265.0 1292.0,264.0 1292.0,262.0 1293.0,261.0 1293.0,260.0 1294.0,259.0 1294.0,258.0 1295.0,257.0 1295.0,255.0 1296.0,254.0 1296.0,253.0 1297.0,252.0 1297.0,251.0 1298.0,250.0 1298.0,248.0 1299.0,247.0 1299.0,246.0 1300.0,245.0 1300.0,243.0 1301.0,242.0 1301.0,241.0 1302.0,240.0 1302.0,239.0 1303.0,238.0 1303.0,236.0 1304.0,235.0 1304.0,234.0 1305.0,233.0 1305.0,232.0 1306.0,231.0 1306.0,229.0 1307.0,228.0 1307.0,227.0 1308.0,226.0 1308.0,225.0 1309.0,224.0 1309.0,222.0 1310.0,221.0 1310.0,220.0 1311.0,219.0 1311.0,218.0 1312.0,217.0 1312.0,215.0 1313.0,214.0 1313.0,213.0 1314.0,212.0 1314.0,211.0 1315.0,210.0 1315.0,208.0 1316.0,207.0 1316.0,206.0 1317.0,205.0 1317.0,203.0 1319.0,201.0 1319.0,199.0 1320.0,198.0 1320.0,197.0 1321.0,196.0 1321.0,195.0 1322.0,194.0 1322.0,193.0 1323.0,192.0 1323.0,190.0 1324.0,189.0 1324.0,188.0 1325.0,187.0 1325.0,184.0 1324.0,183.0 1324.0,182.0 1322.0,180.0 1322.0,179.0 1320.0,177.0 1320.0,176.0 1318.0,174.0 1318.0,173.0 1316.0,171.0 1316.0,170.0 1314.0,168.0 1314.0,167.0 1311.0,164.0 1311.0,163.0 1309.0,161.0 1309.0,160.0 1307.0,158.0 1307.0,157.0 1304.0,154.0 1304.0,153.0 1303.0,152.0 1303.0,151.0 1300.0,148.0 1300.0,147.0 1298.0,145.0 1298.0,144.0 1296.0,142.0 1296.0,141.0 1294.0,139.0 1294.0,138.0 1292.0,136.0 1292.0,135.0 1290.0,133.0 1290.0,132.0 1287.0,129.0 1287.0,128.0 1285.0,126.0 1285.0,125.0 1283.0,123.0 1283.0,122.0 1281.0,120.0 1281.0,119.0 1279.0,117.0 1279.0,116.0 1276.0,113.0 1276.0,112.0 1274.0,110.0 1274.0,109.0 1272.0,107.0 1272.0,106.0 1270.0,104.0 1270.0,103.0 1268.0,101.0 1268.0,100.0 1265.0,97.0 1265.0,96.0 1263.0,94.0 1259.0,94.0 1258.0,95.0 1256.0,95.0 1255.0,96.0 1253.0,96.0 1252.0,97.0 1250.0,97.0 1249.0,98.0 1246.0,98.0 1245.0,99.0 1243.0,99.0 1242.0,100.0 1240.0,100.0 1239.0,101.0 1237.0,101.0 1236.0,102.0 1234.0,102.0 1233.0,103.0 1232.0,103.0 1231.0,104.0 1228.0,104.0 1227.0,105.0 1225.0,105.0 1224.0,106.0 1222.0,106.0 1221.0,107.0 1219.0,107.0 1218.0,108.0 1216.0,108.0 1215.0,109.0 1213.0,109.0 1212.0,110.0 1210.0,110.0 1209.0,111.0 1207.0,111.0 1206.0,112.0 1204.0,112.0 1203.0,113.0 1200.0,113.0 1199.0,114.0 1198.0,114.0 1197.0,115.0 1196.0,115.0 1195.0,116.0 1195.0,117.0 1194.0,118.0 1194.0,119.0 1193.0,120.0 1193.0,122.0 1191.0,124.0 1191.0,125.0 1190.0,126.0 1190.0,127.0 1189.0,128.0 1189.0,130.0 1188.0,131.0 1188.0,132.0 1187.0,133.0 1187.0,134.0 1186.0,135.0 1186.0,136.0 1185.0,137.0 1185.0,138.0 1184.0,139.0 1184.0,140.0 1183.0,141.0 1183.0,142.0 1182.0,143.0 1182.0,145.0 1180.0,147.0 1180.0,149.0 1179.0,150.0 1179.0,151.0 1178.0,152.0 1178.0,153.0 1177.0,154.0 1177.0,155.0 1176.0,156.0 1176.0,157.0 1175.0,158.0 1175.0,159.0 1174.0,160.0 1174.0,162.0 1173.0,163.0 1173.0,164.0 1171.0,166.0 1171.0,168.0 1170.0,169.0 1170.0,170.0 1169.0,171.0 1169.0,172.0 1168.0,173.0 1168.0,174.0 1167.0,175.0 1167.0,177.0 1165.0,179.0 1165.0,181.0 1163.0,183.0 1163.0,185.0 1162.0,186.0 1162.0,187.0 1161.0,188.0 1161.0,189.0 1160.0,190.0 1158.0,190.0 1157.0,189.0 1155.0,189.0 1154.0,188.0 1151.0,188.0 1150.0,187.0 1148.0,187.0 1147.0,186.0 1145.0,186.0 1144.0,185.0 1142.0,185.0 1141.0,184.0 1139.0,184.0 1138.0,183.0 1136.0,183.0 1135.0,182.0 1133.0,182.0 1132.0,181.0 1130.0,181.0 1129.0,180.0 1127.0,180.0 1126.0,179.0 1124.0,179.0 1123.0,178.0 1121.0,178.0 1120.0,177.0 1118.0,177.0 1117.0,176.0 1115.0,176.0 1114.0,175.0 1112.0,175.0 1111.0,174.0 1109.0,174.0 1108.0,173.0 1106.0,173.0 1105.0,172.0 1103.0,172.0 1102.0,171.0 1100.0,171.0 1099.0,170.0 1097.0,170.0 1096.0,169.0 1094.0,169.0 1093.0,168.0 1091.0,168.0 1090.0,167.0 1088.0,167.0 1087.0,166.0 1085.0,166.0 1084.0,165.0 1082.0,165.0 1081.0,164.0 1079.0,164.0 1078.0,163.0 1076.0,163.0 1075.0,162.0 1073.0,162.0 1072.0,161.0 1070.0,161.0 1069.0,160.0 1067.0,160.0 1066.0,159.0 1064.0,159.0 1063.0,158.0 1061.0,158.0 1060.0,157.0 1057.0,157.0 1056.0,156.0 1054.0,156.0 1053.0,155.0 1051.0,155.0 1050.0,154.0 1048.0,154.0 1047.0,153.0 1045.0,153.0 1044.0,152.0 1042.0,152.0 1041.0,151.0 1039.0,151.0 1038.0,150.0 1036.0,150.0 1035.0,149.0 1033.0,149.0 1032.0,148.0 1030.0,148.0 1029.0,147.0 1027.0,147.0 1026.0,146.0 1024.0,146.0 1023.0,145.0 1021.0,145.0 1020.0,144.0 1018.0,144.0 1017.0,145.0 1015.0,145.0 1014.0,146.0 1012.0,146.0 1011.0,147.0 1009.0,147.0 1008.0,148.0 1006.0,148.0 1005.0,149.0 1003.0,149.0 1002.0,150.0 1000.0,150.0 999.0,151.0 997.0,151.0 996.0,152.0 994.0,152.0 993.0,153.0 991.0,153.0 990.0,154.0 988.0,154.0 987.0,155.0 985.0,155.0 984.0,156.0 982.0,156.0 981.0,157.0 979.0,157.0 978.0,158.0 976.0,158.0 975.0,159.0 973.0,159.0 972.0,160.0 970.0,160.0 969.0,161.0 967.0,161.0 966.0,162.0 964.0,162.0 963.0,163.0 961.0,163.0 960.0,164.0 958.0,164.0 957.0,165.0 955.0,165.0 954.0,166.0 952.0,166.0 951.0,167.0 948.0,167.0 947.0,168.0 946.0,168.0 945.0,169.0 942.0,169.0 941.0,170.0 940.0,170.0 939.0,171.0 936.0,171.0 935.0,172.0 934.0,172.0 933.0,173.0 930.0,173.0 929.0,174.0 927.0,174.0 926.0,175.0 924.0,175.0 923.0,176.0 922.0,176.0 921.0,177.0 918.0,177.0 917.0,178.0 915.0,178.0 914.0,179.0 912.0,179.0 911.0,180.0 909.0,180.0 908.0,181.0 906.0,181.0 905.0,182.0 903.0,182.0 902.0,183.0 900.0,183.0 899.0,184.0 897.0,184.0 896.0,185.0 894.0,185.0 893.0,186.0 891.0,186.0 890.0,187.0 888.0,187.0 887.0,188.0 885.0,188.0 884.0,189.0 882.0,189.0 881.0,190.0 879.0,190.0 877.0,188.0 877.0,187.0 876.0,186.0 876.0,185.0 875.0,184.0 875.0,183.0 874.0,182.0 874.0,181.0 873.0,180.0 873.0,178.0 872.0,177.0 872.0,176.0 871.0,175.0 871.0,174.0 870.0,173.0 870.0,172.0 869.0,171.0 869.0,170.0 868.0,169.0 868.0,168.0 867.0,167.0 867.0,166.0 866.0,165.0 866.0,163.0 865.0,162.0 865.0,161.0 864.0,160.0 864.0,159.0 862.0,157.0 862.0,155.0 861.0,154.0 861.0,153.0 860.0,152.0 860.0,151.0 859.0,150.0 859.0,149.0 858.0,148.0 858.0,146.0 857.0,145.0 857.0,144.0 856.0,143.0 856.0,142.0 854.0,140.0 854.0,138.0 853.0,137.0 853.0,136.0 852.0,135.0 852.0,134.0 851.0,133.0 851.0,131.0 850.0,130.0 850.0,129.0 849.0,128.0 849.0,127.0 847.0,125.0 847.0,123.0 846.0,122.0 846.0,121.0 845.0,120.0 845.0,119.0 844.0,118.0 844.0,117.0 843.0,116.0 843.0,115.0 842.0,115.0 841.0,114.0 839.0,114.0 838.0,113.0 836.0,113.0 835.0,112.0 833.0,112.0 832.0,111.0 830.0,111.0 829.0,110.0 827.0,110.0 826.0,109.0 824.0,109.0 823.0,108.0 821.0,108.0 820.0,107.0 817.0,107.0 816.0,106.0 814.0,106.0 813.0,105.0 811.0,105.0 810.0,104.0 808.0,104.0 807.0,103.0 805.0,103.0 804.0,102.0 802.0,102.0 801.0,101.0 799.0,101.0 798.0,100.0 796.0,100.0 795.0,99.0 793.0,99.0 792.0,98.0 790.0,98.0 789.0,97.0 787.0,97.0 786.0,96.0 784.0,96.0 783.0,95.0 781.0,95.0 780.0,94.0"
            stroke="red"/>
</svg>
