<?xml version="1.0" encoding="utf-8"?>
<!-- Generator: Adobe Illustrator 28.3.0, SVG Export Plug-In . SVG Version: 6.00 Build 0)  -->
<svg version="1.1" id="logo" xmlns="http://www.w3.org/2000/svg" x="0px"
     y="0px"
     viewBox="0 0 100 100" style="enable-background:new 0 0 100 100;" xml:space="preserve">
<style type="text/css">
	.st0 {
    fill-rule: evenodd;
    clip-rule: evenodd;
    fill: #1a1a1a;
  }
</style>
  <g>
	<path class="st0" d="M39.4,39.9c0-3,0-5.4,0-8.1c-8.1,0-15.8,0-24,0c0,10.8,0,21.2,0,31.7c3,0,5.7,0,8.8,0c0-3.5,0-6.7,0-10.5
		c5,0,9.7,0,14.3,0c0-3.1,0-5.5,0-8.4c-4.9,0-9.5,0-14.4,0c0.2-1.7,0.3-3,0.4-4.7C29.7,39.9,34.5,39.9,39.4,39.9z"/>
    <path class="st0" d="M78.5,34.5c-0.6-1.9-1.1-3.6-3.8-3.2c-2.7,0.5-5.9-1.3-7.5,2.9C65.1,40,62.1,45.4,60,51.1
		c-1.4,3.9-3.6,5-7.9,3.7c0-7.6,0-15.4,0-23.1c-3.3,0-6,0-8.7,0c0,10.7,0,21.1,0,32c5.1,0,10-0.3,14.9,0.1c4.1,0.4,6.2-1,7.6-4.8
		c1.6-4.6,3.9-9,6.4-14.5c0.8,3.5,1.3,5.7,1.8,7.8c-1.2,0.5-2,0.8-2.9,1.1c4.3,5.3,8.2,10.3,12.2,15.2c0.2-0.2,0.4-0.3,0.6-0.7
		c-1.1-4.4-2.2-8.8-3.3-13.2c1.5-0.3,2.6-0.6,3.9-0.9C82.5,47.2,80.5,40.9,78.5,34.5z"/>
</g>
</svg>
