<svg version="1.1" xmlns="http://www.w3.org/2000/svg" width="100%" height="100%" viewBox="0 0 100 100">
  <g style="fill: var(--company-logo-c, #ffffff)">
    <path d="M14.6,40.6c-1.2,1.6-2.3,3.3-3.4,4.9c-0.1,0.2-0.1,0.6,0,0.7c0.4,0.4,1.8,0.3,2.1-0.2c0.8-1.1,1.4-2.2,2.3-3.2
		c1.8-2,3.7-3.9,5.6-5.8c0.2-0.1,0.4-0.2,0.8-0.4c0,0.9,0,1.5,0,2.2c0.1,2.4,0.1,4.9,0.3,7.4c0.1,1.4,0.4,2.8,0.7,4.2
		c0,0.1,0.3,0.4,0.5,0.4c1.3,0,2.6,0.1,4,0.1c-0.9-7-1.2-13.8-0.4-20.8c-1.9,1.1-3.8,2.2-5.5,3.5C19,35.6,16.6,38,14.6,40.6z"/>
    <path d="M48.6,27.9c1.1-0.1,2.2-0.1,3.2,0c0.7,0.1,1.2,0.4,1.7,0.6c0.9-1.1,1.8-2.2,2.6-3.2c-1.6-0.8-3.4-1.3-5.2-1.4
		c-2.5-0.2-4.9,0.2-7.3,0.9c-0.2,0-0.4,0.4-0.4,0.6c-0.1,1.7-0.3,3.3-0.3,5c-0.2,7.9-0.4,15.7-0.5,23.6c0,0.1-0.1,0.3,0,0.4
		c0,0.1,0.2,0.3,0.3,0.3c1.4,0,2.9,0.1,4.3,0.1c0.1-5.3,0.3-10.3,0.4-15.4c0-1.1,0-1.1,1.1-1.1c1.1,0,2.1-0.1,3.1-0.1
		c0-1.2,0.1-2.3,0.1-3.4c-1.2,0-2.2-0.1-3.3-0.1c-0.7,0-0.9-0.2-0.9-0.9c0.1-1.6,0.1-3.1,0.1-4.7C47.6,28.4,48,27.9,48.6,27.9z"/>
    <path d="M40.9,30.3c-0.1-0.9-0.3-1.8-0.5-2.6c-0.3-1.2-1.5-2-2.7-1.9c-2,0.2-3.5,1-4.6,2.7c-0.2,0.3-0.5,0.6-0.7,0.9
		c-0.1-0.4-0.2-0.7-0.3-1.1c-0.7,0.2-1.3,0.2-1.8,0.4c-0.8,0.4-1.5,0.8-1.6,1.8c-0.2,1.3-0.4,2.5-0.4,3.8c-0.1,3.4-0.1,6.9,0,10.4
		c0,1.8,0.2,3.7,0.4,5.5c0.1,0.3,0.3,0.7,0.4,0.7c1.4,0.1,2.7,0.1,4.1,0.1c0-0.6,0-1-0.1-1.4c-0.5-3.8-0.6-7.6-0.5-11.4
		c0-1,0.3-1.8,1.4-2.2c1.2-0.5,2.1-0.2,2.3,0.9c0.1,0.8,0.1,1.5,0.1,2.3c0.2,3.1,0.3,6.3,0.4,9.5c0.1,0.8,0.1,1.6,0.1,2.4
		c1.4,0,2.7,0.1,4.1,0.1c0-0.2,0-0.3,0.2-0.6c-0.1-2.9-0.2-5.9-0.2-8.8c-0.1-2.7,0-5.5,0-8.3C41,32.4,41,31.4,40.9,30.3z"/>
    <path d="M27.1,26.2c0-2.3-2-3.7-3.8-3.7c-2.1,0.1-3.7,1.9-3.6,3.9c0.1,1.9,2,3.7,3.8,3.6
		C25.9,29.9,27.3,27.9,27.1,26.2z"/>
    <path d="M61.3,59.3c1.7-1.5,1.7-6,0.4-7.4c-0.7-0.7-1.5-1.7-2.3-1.7c-3.5-0.2-7,0-10.7,0c0,3.1,0.1,6,0.1,9
		c0,3.1,0,6.1,0,9.2c0,2.5,0,5,0,7.5c0,0.8,0.3,1.1,1,1c2.8-0.2,5.7-0.3,8.5-0.6c2.2-0.2,3.7-1.6,4.7-3.6c0.9-1.9,0.9-3.6,0.7-5.4
		c-0.3-2.7-1.3-5-4.1-5.9c-0.2-0.1-0.3-0.3-0.5-0.4c0.1-0.2,0.3-0.3,0.4-0.5C60.1,60.1,60.8,59.8,61.3,59.3z M53.1,53.6
		c0-0.2,0.3-0.6,0.5-0.6c0.5-0.1,1.1-0.1,1.7-0.2c0,0,0-0.1,0.1-0.1c0.9,0.3,1.9,0.4,2.7,0.9c1.5,0.8,1,3.8-0.6,4.7
		C56.3,59,55,59.1,53.7,59c-0.2-0.1-0.5-0.5-0.5-0.7C53.1,56.7,53.1,55.1,53.1,53.6z M60,68.1c0.2,2.9-1.8,4.9-4.6,5
		c-2,0.1-2,0.2-2-1.8c0-1.9,0-3.7,0-5.6c0-0.1,0-0.2,0-0.3c-0.1-1.5-0.1-1.5,1.5-1.5c0.8,0,1.5,0.1,2.2,0.3
		C59.4,64.8,60.1,65.8,60,68.1z"/>
    <path d="M70.4,74.5c0.1-1.6,0.1-3.2,0.2-4.8c0.1-3.3,0.2-6.6,0.2-9.9c0-0.9-0.3-1.7-0.5-2.8c-1.7,0.8-3.2,1.4-4.8,2.1
		c1,5.4,0.8,10.7-1,16C66.4,74.9,68.3,74.7,70.4,74.5z"/>
    <path d="M80.3,36.3c-2.1-2.3-4.4-4.2-7-5.9c-3.5-2.3-7.2-4.1-11.1-5.3c-1-0.3-2.1-0.2-3.1,0.2
		c-2.9,1.3-4.3,3.7-5.2,6.5c-0.8,2.6-1.2,5.2-0.8,7.9c0.5,3.3,1.4,6.5,4.1,8.7c1.4,1.2,3,1.7,4.9,1.1c2.7-0.8,4.1-2.9,5.1-5.2
		c1.3-2.9,1.8-5.9,1.4-9.2c-0.2-1.9-0.7-3.7-1.4-5.5c-0.1-0.3-0.1-0.6-0.1-0.9c0.3,0.1,0.5,0.1,0.8,0.2c2.8,1.3,5.2,3.1,7.5,5.2
		c2.8,2.6,5.5,5.3,7.4,8.7c1.8,3.1,2.9,6.5,3.5,10c0.1,0.5,0,0.9-0.7,0.9c-1.9,0-3.8,0.1-5.7,0.2c-1.6,0.1-3.3,0.2-4.9,0.3
		c-0.2,0-0.4,0.3-0.5,0.4c-0.3,1.1-0.6,2.1-0.9,3.2c2.4-0.2,4.9-0.4,7.3-0.6c0.3,0,0.5,0.1,0.8,0.1c0,0.2,0,0.5-0.2,0.7
		c-2.8,3.8-5.7,7.6-8.6,11.3c-1.2,1.5-1.3,3.2-1.3,4.9c1.9-0.2,3.7-0.3,5.5-0.5c2.6-0.3,5.3-0.6,7.9-0.9c1.5-0.2,1.5-0.1,1.9-1.6
		c1.8-6.3,2.1-12.8,1-19.4C86.9,45.9,84.3,40.8,80.3,36.3z M63.3,43.6c-1.4,2-3.5,2-4.8-0.1c-1.3-2-1.6-4.3-1.5-6.7
		c0.1-1.2,0.3-2.4,0.6-3.5c0.5-1.6,1.2-3,3-3.6c0.8-0.3,1.5-0.1,2.1,0.5c1.1,1,1.7,2.4,2,3.8c0.2,1.1,0.3,2.3,0.5,3.5
		C65.1,39.7,64.6,41.8,63.3,43.6z M84.8,69.3c-0.1,0.3-0.5,0.6-0.9,0.6c-1.5,0.2-3.1,0.4-4.7,0.6c-0.5-0.1-1.1-0.3-1.7-0.5
		c0.3-0.5,0.5-1.1,0.8-1.6c2.5-3.3,5-6.6,7.5-9.9c0.1-0.2,0.4-0.3,0.5-0.5c0.1,0.2,0.3,0.5,0.3,0.7C86.8,62.5,86,65.9,84.8,69.3z"/>
    <path
      d="M67.8,48.8c-2.1,0-3.6,1.5-3.7,3.6c-0.1,2.1,1.5,3.7,3.5,3.7s3.6-1.3,3.7-3.6C71.4,50.6,69.8,48.9,67.8,48.8z"/>
  </g>
</svg>
