<?xml version="1.0" encoding="utf-8"?>
<!-- Generator: Adobe Illustrator 28.3.0, SVG Export Plug-In . SVG Version: 6.00 Build 0)  -->
<svg version="1.1" id="logo" xmlns="http://www.w3.org/2000/svg" x="0px" y="0px"
     viewBox="0 0 100 100" style="enable-background:new 0 0 100 100;" xml:space="preserve">
<style type="text/css">
	.st0 {
    fill-rule: evenodd;
    clip-rule: evenodd;
    fill: #1a1a1a;
  }
</style>
  <path id="path2233" class="st0" d="M18.4,71.1l9.2,9.4l21.6-21.9L71.7,81l9.4-9.2L58.8,49.5l4.3-4.1v-8.8l2.7-2.3v6.9l3.5,2.8
	l10.3-10.3l3.3,2.6c2-7.2-9.3-23.5-18.6-14.5l-11,10.8l2.3,2.7L50,40.8l-5.3-5.3l2.8-2.6l-12-11.5C26.6,14,17.4,25.2,17,36.2
	l3.2-2.7l10,10.7l3.6-3v-6.6l2.3,1.7v8.6l4.4,4.4L18.4,71.1L18.4,71.1z"/>
</svg>
