<svg
  height="212.44922"
  viewBox="0 0 642.87695 212.44922"
  width="642.87695"
  xmlns="http://www.w3.org/2000/svg"
>
  <defs>
    <linearGradient
      gradientUnits="userSpaceOnUse"
      id="resume-bg-gradient"
      x1="-1.00001"
      x2="621"
      y1="197"
      y2="37"
    >
      <stop offset="0" stop-color="#28988E"/>
      <stop offset="0.124153" stop-color="#5CD5CA"/>
      <stop offset="0.682077" stop-color="#2FA99E"/>
      <stop offset="1" stop-color="#02605C"/>
    </linearGradient>
  </defs>
  <g class="draw-text" fill="url(#resume-bg-gradient)">
    <path
      d="M 0,2.9765625 V 70.65625 H 17.759766 V 43.583984 H 45.023438 V 70.65625 H 62.783203 V 2.9765625 H 45.023438 V 29.087891 H 17.759766 V 2.9765625 Z"
    />
    <path
      d="m 96.88086,20.832031 c -4.99199,0 -9.344648,1.087676 -13.056641,3.263672 -3.711992,2.111996 -6.590676,5.087742 -8.638672,8.927734 -2.047996,3.839993 -3.072265,8.224354 -3.072265,13.152344 0,7.935984 2.430931,14.176712 7.294921,18.720703 4.927991,4.543991 11.808843,6.816407 20.640627,6.816407 3.584,0 6.97579,-0.447752 10.17578,-1.34375 3.2,-0.895999 6.01527,-2.177801 8.44727,-3.841797 l -4.41602,-11.134766 c -2.04799,1.279998 -4.22334,2.207204 -6.52734,2.783203 -2.24,0.575999 -4.63922,0.865235 -7.19922,0.865235 -3.967795,0 -7.009101,-0.992567 -9.121097,-2.976563 -1.605749,-1.508431 -2.595569,-3.687076 -2.980468,-6.527344 h 30.724615 v -3.648437 c 0,-4.92799 -0.8321,-9.248945 -2.4961,-12.960938 -1.66399,-3.775992 -4.16028,-6.720035 -7.48828,-8.832031 -3.26399,-2.175996 -7.35932,-3.263672 -12.28711,-3.263672 z m 0.191406,11.232422 c 2.495995,0 4.415774,0.895504 5.759774,2.6875 1.22893,1.508235 1.92183,3.749779 2.07812,6.720703 H 88.435547 c 0.30367,-2.591501 0.969951,-4.647018 2.013672,-6.144531 1.535997,-2.175996 3.743053,-3.263672 6.623047,-3.263672 z"
    />
    <path
      d="m 127.28907,0 v 70.65625 h 17.08789 V 0 Z"
    />
    <path
      d="m 154.94532,0 v 70.65625 h 17.08789 V 0 Z"
    />
    <path
      d="m 206.98633,20.832031 c -5.43999,0 -10.14529,1.02427 -14.11328,3.072266 -3.96799,2.047996 -7.03885,4.960336 -9.21484,8.736328 -2.176,3.775992 -3.26367,8.31887 -3.26367,13.630859 0,5.24799 1.08767,9.792821 3.26367,13.632813 2.17599,3.775992 5.24685,6.688332 9.21484,8.736328 3.96799,2.047996 8.67329,3.072266 14.11328,3.072266 5.37599,0 10.04764,-1.02427 14.01563,-3.072266 3.96799,-2.047996 7.03885,-4.992039 9.21484,-8.832031 2.176,-3.839993 3.26563,-8.35312 3.26563,-13.53711 0,-5.247989 -1.08963,-9.759163 -3.26563,-13.535156 -2.17599,-3.839992 -5.24685,-6.784035 -9.21484,-8.832031 -3.96799,-2.047996 -8.63964,-3.072266 -14.01563,-3.072266 z m 0,12.671875 c 2.816,0 5.05476,1.02427 6.71875,3.072266 1.664,1.983996 2.4961,5.215321 2.4961,9.695312 0,4.479991 -0.8321,7.744973 -2.4961,9.792969 -1.66399,1.983996 -3.90275,2.976563 -6.71875,2.976563 -2.87999,0 -5.15241,-0.992567 -6.8164,-2.976563 -1.664,-2.047996 -2.4961,-5.312978 -2.4961,-9.792969 0,-4.479991 0.8321,-7.711316 2.4961,-9.695312 1.66399,-2.047996 3.93641,-3.072266 6.8164,-3.072266 z"
    />
    <path
      d="M 239.38868,53.183594 V 70.65625 h 8.00195 c -0.26628,0.988761 -0.62666,1.950585 -1.0918,2.880859 -1.024,2.175996 -2.7833,4.480115 -5.27929,6.91211 l 6.43164,5.08789 c 3.58399,-3.583992 6.08028,-7.041147 7.48828,-10.36914 1.47199,-3.263994 2.20898,-6.911368 2.20898,-10.94336 V 53.183594 Z"
    />
    <path
      d="M 295.40625,2.9765625 V 70.65625 h 17.75977 V 2.9765625 Z"
    />
    <path
      d="M 323.66993,2.9765625 V 20.449219 h 8.0039 c -0.26624,0.988117 -0.62694,1.949203 -1.09179,2.878906 -1.088,2.175996 -2.84731,4.480114 -5.2793,6.912109 l 6.33594,5.087891 c 3.64799,-3.583993 6.17794,-7.007491 7.58593,-10.271484 1.472,-3.327994 2.20703,-7.009024 2.20703,-11.041016 V 2.9765625 Z"
    />
    <path
      d="m 382.4668,20.832031 c -3.71199,0 -6.94332,0.863801 -9.69531,2.591797 -2.23324,1.350329 -4.01706,3.129022 -5.36524,5.322266 l -0.77929,-6.857422 h -16.51172 c 0.256,2.175996 0.44817,4.383051 0.57617,6.623047 0.128,2.239995 0.19141,4.449004 0.19141,6.625 V 70.65625 h 17.08984 v -26.6875 c 0,-3.135994 0.67163,-5.600582 2.01563,-7.392578 1.40799,-1.791997 3.35947,-2.6875 5.85546,-2.6875 1.92,0 3.32862,0.639924 4.22461,1.919922 0.96,1.215997 1.43946,3.327943 1.43946,6.335937 V 70.65625 h 17.08789 v -26.6875 c 0,-3.135994 0.67163,-5.600582 2.01562,-7.392578 1.408,-1.791997 3.35948,-2.6875 5.85547,-2.6875 1.984,0 3.42432,0.639924 4.32031,1.919922 0.896,1.215997 1.34375,3.327943 1.34375,6.335937 V 70.65625 h 17.18555 V 41.568359 c 0,-7.103985 -1.37691,-12.320444 -4.12891,-15.648437 -2.75199,-3.391993 -6.91248,-5.087891 -12.48046,-5.087891 -3.776,0 -7.19949,0.92916 -10.27149,2.785156 -2.44841,1.51072 -4.42195,3.517927 -5.9375,6.003907 -1.15467,-2.744551 -2.78709,-4.817271 -4.91016,-6.197266 -2.49599,-1.727996 -5.5371,-2.591797 -9.12109,-2.591797 z"
    />
    <path
      d="m 0,122.97656 v 67.67969 H 17.759766 V 165.4082 h 15.455078 c 7.807985,0 13.696071,-1.91977 17.664063,-5.75976 3.967992,-3.83999 5.953125,-8.99305 5.953125,-15.45703 0,-6.52799 -1.985133,-11.67909 -5.953125,-15.45508 -3.967992,-3.83999 -9.856078,-5.75977 -17.664063,-5.75977 z m 17.759766,13.53516 H 30.91211 c 3.007994,0 5.246753,0.67163 6.71875,2.01562 1.471997,1.344 2.208984,3.23207 2.208984,5.66407 0,2.43199 -0.736987,4.32006 -2.208984,5.66406 -1.471997,1.28 -3.710756,1.91992 -6.71875,1.91992 H 17.759766 Z"
    />
    <path
      d="m 81.802735,140.83203 c -4.223992,0 -7.936725,1.02427 -11.136719,3.07227 -3.199994,1.98399 -5.727988,4.89633 -7.583984,8.73632 -1.791997,3.776 -2.6875,8.31887 -2.6875,13.63086 0,5.24799 0.895503,9.79282 2.6875,13.63282 1.855996,3.83999 4.38399,6.78403 7.583984,8.83203 3.199994,1.98399 6.912727,2.97656 11.136719,2.97656 3.647992,0 6.976381,-0.8321 9.984375,-2.49609 2.189755,-1.23174 3.830618,-2.7467 4.947265,-4.53125 l 0.140625,5.9707 h 16.89454 v -35.51953 c 0,-2.176 0.0634,-4.38501 0.1914,-6.625 0.192,-2.24 0.38417,-4.44705 0.57617,-6.62305 H 98.123047 l -0.845703,6.91602 c -1.108349,-2.10033 -2.867031,-3.86661 -5.298828,-5.28516 -3.007994,-1.792 -6.399789,-2.6875 -10.175781,-2.6875 z m 5.470703,12.67188 c 2.879994,0 5.217769,1.02427 7.009765,3.07226 1.791997,1.984 2.6875,5.21532 2.6875,9.69531 10e-7,4.48 -0.895503,7.74498 -2.6875,9.79297 -1.791996,1.984 -4.129771,2.97657 -7.009765,2.97657 -2.943994,0 -5.311519,-0.99257 -7.103516,-2.97657 -1.727996,-2.04799 -2.591797,-5.31297 -2.591797,-9.79297 0,-4.47999 0.895504,-7.71131 2.6875,-9.69531 1.791997,-2.04799 4.127819,-3.07226 7.007813,-3.07226 z"
    />
    <path
      d="m 145.59961,126.33594 -17.08789,4.0332 v 11.51953 h -9.11914 v 12.57617 h 9.11914 v 17.2793 c 0,6.71999 1.7276,11.74427 5.1836,15.07227 3.51999,3.26399 8.73645,4.89648 15.64843,4.89648 1.28,0 2.59155,-0.0971 3.93555,-0.28906 1.408,-0.192 2.81661,-0.57635 4.22461,-1.15235 v -13.15039 c -0.896,0.32 -1.7598,0.57558 -2.5918,0.76758 -0.76799,0.128 -1.69715,0.19141 -2.78515,0.19141 -1.792,0 -3.32743,-0.44775 -4.60742,-1.34375 -1.28,-0.96 -1.91993,-2.84807 -1.91993,-5.66406 v -16.60743 h 11.9043 v -12.57617 h -11.9043 z"
    />
    <path
      d="m 194.94922,140.83203 c -2.87999,0 -5.37628,0.57652 -7.48828,1.72852 -2.11199,1.15199 -3.8713,2.9113 -5.2793,5.27929 -0.46572,0.78326 -0.88588,1.64311 -1.26757,2.56641 l -1.03711,-8.51758 h -16.51172 c 0.256,2.176 0.44817,4.38305 0.57617,6.62305 0.128,2.23999 0.19141,4.48071 0.19141,6.7207 v 35.42383 h 17.28125 V 168 c 0,-3.00799 0.35264,-5.47258 1.05664,-7.39258 0.768,-1.91999 1.98249,-3.32666 3.64648,-4.22265 1.664,-0.96 3.80765,-1.44141 6.43164,-1.44141 1.536,0 2.78415,0.0971 3.74414,0.28906 0.96,0.192 2.23985,0.63975 3.83985,1.34375 v -14.97656 c -0.768,-0.32 -1.50304,-0.51217 -2.20703,-0.57617 -0.64,-0.128 -1.63257,-0.19141 -2.97657,-0.19141 z"
    />
    <path
      d="m 201.0918,141.88867 20.11328,46.29492 -0.8164,1.89649 c -0.768,1.85599 -1.82398,3.35972 -3.16797,4.51172 -1.344,1.15199 -3.07355,2.0475 -5.18555,2.6875 -2.048,0.704 -4.60769,1.34587 -7.67969,1.92187 l 4.03321,13.24805 c 3.13599,-0.512 6.01467,-1.15388 8.63867,-1.92188 2.68799,-0.70399 5.15258,-1.79167 7.39258,-3.26367 2.30399,-1.472 4.41594,-3.45517 6.33593,-5.95117 1.984,-2.496 3.84037,-5.69562 5.56836,-9.59961 l 21.88672,-49.82422 h -16.89453 l -11.25781,28.30664 -10.91797,-28.30664 z"
    />
    <path
      d="m 261.72657,120 v 70.65625 h 17.08789 v -20.44727 h 0.1914 l 16.70508,20.44727 h 20.64063 l -20.53125,-25.51172 19.66601,-23.25586 h -20.1582 l -16.32227,19.67969 h -0.1914 V 120 Z"
    />
    <path
      d="m 375.46485,121.91992 c -5.82399,0 -10.91168,0.92916 -15.26367,2.78516 -4.352,1.79199 -7.74379,4.35169 -10.17579,7.67969 -2.36799,3.26399 -3.55273,7.13524 -3.55273,11.61523 0,5.11999 1.53543,9.28048 4.60742,12.48047 3.072,3.13599 7.71194,5.34305 13.91992,6.62305 l 11.71289,2.40039 c 3.008,0.63999 5.05654,1.40869 6.14454,2.30468 1.08799,0.832 1.63086,2.01479 1.63086,3.55078 0,1.728 -0.8321,3.13662 -2.4961,4.22461 -1.59999,1.088 -4.51233,1.63282 -8.73633,1.63282 -2.81599,0 -5.59956,-0.25558 -8.35156,-0.76758 -2.68799,-0.576 -5.27939,-1.34469 -7.77539,-2.30469 -2.49599,-0.96 -4.80011,-2.11303 -6.91211,-3.45703 l -4.99219,13.72852 c 3.328,2.23999 7.42508,4.03295 12.28907,5.37695 4.92799,1.28 10.11079,1.91992 15.55078,1.91992 5.82399,0 10.87997,-0.89746 15.16797,-2.68945 4.28799,-1.792 7.61638,-4.31999 9.98437,-7.58399 2.432,-3.26399 3.64844,-7.07183 3.64844,-11.42383 0,-5.05598 -1.56909,-9.15111 -4.70508,-12.2871 -3.07199,-3.136 -7.71193,-5.31135 -13.91992,-6.52735 l -11.51953,-2.30469 c -3.008,-0.63999 -5.08824,-1.44039 -6.24024,-2.40039 -1.08799,-1.02399 -1.63086,-2.24044 -1.63086,-3.64843 0,-2.048 0.92721,-3.61513 2.78321,-4.70313 1.91999,-1.152 4.73527,-1.72851 8.44726,-1.72851 3.90399,0 7.45626,0.51311 10.65625,1.5371 3.2,0.96 6.08063,2.36666 8.64063,4.22266 l 4.99218,-12.86328 c -2.68799,-2.304 -6.14514,-4.09696 -10.36914,-5.37695 -4.22399,-1.344 -8.73516,-2.01563 -13.53515,-2.01563 z"
    />
    <path
      d="m 409.83204,141.88867 v 12.57617 h 23.90625 l -23.90625,25.15235 v 11.03906 h 43.87109 v -12.48047 h -24.99219 l 23.9375,-25.24805 v -11.03906 z"
    />
    <path
      d="m 492.79297,140.83203 c -2.87999,0 -5.37433,0.57652 -7.48633,1.72852 -2.11199,1.15199 -3.87325,2.9113 -5.28125,5.27929 -0.46572,0.78326 -0.88573,1.64311 -1.26757,2.56641 l -1.03711,-8.51758 h -16.51172 c 0.256,2.176 0.44817,4.38305 0.57617,6.62305 0.128,2.23999 0.19141,4.48071 0.19141,6.7207 v 35.42383 h 17.27929 V 168 c 0,-3.00799 0.35265,-5.47258 1.05664,-7.39258 0.768,-1.91999 1.98445,-3.32666 3.64844,-4.22265 1.664,-0.96 3.80765,-1.44141 6.43164,-1.44141 1.536,0 2.7861,0.0971 3.7461,0.28906 0.95999,0.192 2.23889,0.63975 3.83789,1.34375 v -14.97656 c -0.768,-0.32 -1.50304,-0.51217 -2.20703,-0.57617 -0.64,-0.128 -1.63257,-0.19141 -2.97657,-0.19141 z"
    />
    <path
      d="m 521.86524,140.83203 c -4.22399,0 -7.93673,1.02427 -11.13672,3.07227 -3.19999,1.98399 -5.72799,4.89633 -7.58398,8.73632 -1.792,3.776 -2.6875,8.31887 -2.6875,13.63086 0,5.24799 0.8955,9.79282 2.6875,13.63282 1.85599,3.83999 4.38399,6.78403 7.58398,8.83203 3.19999,1.98399 6.91273,2.97656 11.13672,2.97656 3.64799,0 6.97638,-0.8321 9.98437,-2.49609 2.18976,-1.23174 3.83062,-2.7467 4.94727,-4.53125 l 0.14062,5.9707 h 16.89454 v -35.51953 c 0,-2.176 0.0654,-4.38501 0.19335,-6.625 0.192,-2.24 0.38418,-4.44705 0.57618,-6.62305 h -16.41602 l -0.8457,6.91602 c -1.10835,-2.10033 -2.86703,-3.86661 -5.29883,-5.28516 -3.00799,-1.792 -6.39979,-2.6875 -10.17578,-2.6875 z m 5.4707,12.67188 c 2.88,0 5.21777,1.02427 7.00977,3.07226 1.79199,1.984 2.6875,5.21532 2.6875,9.69531 0,4.48 -0.89551,7.74498 -2.6875,9.79297 -1.792,1.984 -4.12977,2.97657 -7.00977,2.97657 -2.94399,0 -5.31152,-0.99257 -7.10351,-2.97657 -1.728,-2.04799 -2.5918,-5.31297 -2.5918,-9.79297 0,-4.47999 0.8955,-7.71131 2.6875,-9.69531 1.792,-2.04799 4.12782,-3.07226 7.00781,-3.07226 z"
    />
    <path
      d="m 596.0293,140.83203 c -3.712,0 -6.94331,0.8638 -9.69531,2.5918 -2.23309,1.35024 -4.01709,3.12922 -5.36524,5.32226 l -0.77929,-6.85742 h -16.51172 c 0.256,2.176 0.44817,4.38305 0.57617,6.62305 0.128,2.24 0.19141,4.449 0.19141,6.625 v 35.51953 h 17.08789 v -26.6875 c 0,-3.136 0.67162,-5.60058 2.01562,-7.39258 1.408,-1.792 3.36143,-2.6875 5.85742,-2.6875 1.92,0 3.32666,0.63993 4.22266,1.91992 0.96,1.216 1.44141,3.32794 1.44141,6.33594 v 28.51172 h 17.08789 v -26.6875 c 0,-3.136 0.67162,-5.60058 2.01562,-7.39258 1.408,-1.792 3.35947,-2.6875 5.85547,-2.6875 1.984,0 3.42431,0.63993 4.32031,1.91992 0.896,1.216 1.34375,3.32794 1.34375,6.33594 v 28.51172 h 17.1836 v -29.08789 c 0,-7.10399 -1.37496,-12.32044 -4.12696,-15.64844 -2.75199,-3.39199 -6.91247,-5.08789 -12.48046,-5.08789 -3.776,0 -7.19949,0.92916 -10.27149,2.78516 -2.44916,1.51118 -4.42372,3.51881 -5.93945,6.00586 -1.15471,-2.74526 -2.78477,-4.81899 -4.90821,-6.19922 -2.49599,-1.728 -5.53709,-2.5918 -9.12109,-2.5918 z"
    />
  </g>
</svg>
